<?xml version="1.0" encoding="UTF-8"?>
<svg version="1.1" xmlns="http://www.w3.org/2000/svg" width="500" height="500">
<path d="M0 0 C10.90720049 9.44303632 19.81487183 21.23540629 21.40234375 35.9921875 C21.78335592 43.41787154 21.84736582 50.51498007 19.91796875 57.72265625 C18.8608292 62.37567198 18.50291826 67.22650289 18.40234375 71.9921875 C18.73234375 72.3221875 19.06234375 72.6521875 19.40234375 72.9921875 C19.59334227 74.43327317 19.7257273 75.88223547 19.83203125 77.33203125 C19.90550781 78.23115234 19.97898437 79.13027344 20.0546875 80.05664062 C20.2003706 81.93646381 20.34119159 83.81667171 20.4765625 85.69726562 C21.01270184 92.11730707 22.31316382 97.89915957 24.40234375 103.9921875 C27.04234375 103.9921875 29.68234375 103.9921875 32.40234375 103.9921875 C35.51986046 92.78991078 36.48969666 81.54528384 37.40234375 69.9921875 C39.05234375 70.3221875 40.70234375 70.6521875 42.40234375 70.9921875 C43.04737142 98.90755177 43.04737142 98.90755177 36.40234375 107.9921875 C34.00770185 110.24999272 32.52256633 110.91056837 29.2578125 111.1484375 C24.93722407 110.97647378 22.8849351 110.40134103 19.52734375 107.5546875 C13.76415741 99.12851162 13.78224154 88.81713031 13.40234375 78.9921875 C12.74878906 79.62447266 12.74878906 79.62447266 12.08203125 80.26953125 C11.48648438 80.81738281 10.8909375 81.36523438 10.27734375 81.9296875 C9.69726562 82.47496094 9.1171875 83.02023438 8.51953125 83.58203125 C5.85856582 85.35437169 3.54857572 85.64013038 0.40234375 85.9921875 C0.75167969 87.07757813 1.10101563 88.16296875 1.4609375 89.28125 C1.9207879 90.72649411 2.3804113 92.17181047 2.83984375 93.6171875 C3.06994141 94.33003906 3.30003906 95.04289062 3.53710938 95.77734375 C6.99000781 106.68650113 8.00485508 117.25299439 3.40234375 127.9921875 C0.87782408 132.44803369 -1.87598568 136.45881574 -5.59765625 139.9921875 C-5.03175781 140.37890625 -4.46585937 140.765625 -3.8828125 141.1640625 C-3.14933594 141.68484375 -2.41585937 142.205625 -1.66015625 142.7421875 C-0.92925781 143.25265625 -0.19835937 143.763125 0.5546875 144.2890625 C2.40234375 145.9921875 2.40234375 145.9921875 3.40234375 149.9921875 C0.10234375 150.3221875 -3.19765625 150.6521875 -6.59765625 150.9921875 C-6.72140625 152.1059375 -6.84515625 153.2196875 -6.97265625 154.3671875 C-7.59765625 157.9921875 -7.59765625 157.9921875 -9.59765625 159.9921875 C-15.32214246 159.76769784 -18.88246078 157.97527035 -23.59765625 154.9921875 C-23.59765625 155.6521875 -23.59765625 156.3121875 -23.59765625 156.9921875 C-26.59765625 158.9921875 -26.59765625 158.9921875 -29.28515625 158.6171875 C-30.04828125 158.4109375 -30.81140625 158.2046875 -31.59765625 157.9921875 C-31.92765625 154.6921875 -32.25765625 151.3921875 -32.59765625 147.9921875 C-33.78294922 148.07919922 -33.78294922 148.07919922 -34.9921875 148.16796875 C-42.65128556 148.47433267 -49.21627841 147.6496326 -56.59765625 145.6796875 C-57.39792236 145.46675049 -58.19818848 145.25381348 -59.02270508 145.03442383 C-63.49208018 143.77428814 -67.50126987 142.23075762 -71.59765625 139.9921875 C-72.03078125 141.3534375 -72.03078125 141.3534375 -72.47265625 142.7421875 C-73.36297401 145.31421658 -74.31260038 147.60565516 -75.59765625 149.9921875 C-77.97265625 150.1796875 -77.97265625 150.1796875 -80.59765625 149.9921875 C-82.59765625 146.9921875 -82.59765625 146.9921875 -82.59765625 143.9921875 C-83.23703125 144.1571875 -83.87640625 144.3221875 -84.53515625 144.4921875 C-88.54846607 145.14742176 -92.53824837 145.27735252 -96.59765625 144.9921875 C-97.59765625 143.9921875 -97.59765625 143.9921875 -97.6953125 141.70703125 C-97.67791016 140.33224609 -97.67791016 140.33224609 -97.66015625 138.9296875 C-97.65113281 138.01058594 -97.64210937 137.09148437 -97.6328125 136.14453125 C-97.62121094 135.43425781 -97.60960937 134.72398437 -97.59765625 133.9921875 C-99.90765625 133.3321875 -102.21765625 132.6721875 -104.59765625 131.9921875 C-104.92765625 130.6721875 -105.25765625 129.3521875 -105.59765625 127.9921875 C-102.31274252 125.80224502 -100.76669986 125.63941411 -96.91015625 125.3671875 C-95.41935547 125.25503906 -95.41935547 125.25503906 -93.8984375 125.140625 C-93.13917969 125.09164062 -92.37992188 125.04265625 -91.59765625 124.9921875 C-92.09265625 123.9196875 -92.58765625 122.8471875 -93.09765625 121.7421875 C-97.12318031 110.7827464 -94.02350789 99.68877987 -89.44140625 89.39453125 C-88.54033372 87.56985938 -87.57703379 85.77605374 -86.59765625 83.9921875 C-87.35691406 83.05117187 -88.11617187 82.11015625 -88.8984375 81.140625 C-89.90262859 79.8830399 -90.90651894 78.6252146 -91.91015625 77.3671875 C-92.40966797 76.74972656 -92.90917969 76.13226563 -93.42382812 75.49609375 C-97.7284635 70.07966513 -101.42085246 65.23631416 -100.59765625 57.9921875 C-98.59765625 55.9921875 -98.59765625 55.9921875 -95.47265625 55.6796875 C-90.94140783 56.04511076 -87.77070428 57.23511465 -83.59765625 58.9921875 C-84.01917969 58.30511719 -84.44070312 57.61804688 -84.875 56.91015625 C-85.42285156 56.00910156 -85.97070312 55.10804688 -86.53515625 54.1796875 C-87.35306641 52.83970703 -87.35306641 52.83970703 -88.1875 51.47265625 C-91.63474288 45.40894647 -91.14988153 38.77995655 -90.59765625 31.9921875 C-89.38227275 28.10163924 -87.20421702 25.58235473 -84.28515625 22.7421875 C-81.7284701 20.12604353 -80.11512715 17.7247348 -78.22265625 14.6171875 C-70.51548662 2.26914154 -59.00359317 -5.0513399 -44.9453125 -8.6953125 C-29.20841974 -11.94655003 -12.9755479 -10.02922048 0 0 Z " fill="#F3EEE8" transform="translate(252.59765625,125.0078125)"/>
<path d="M0 0 C4.66558536 4.02086108 8.59814751 8.25632147 12.1328125 13.29296875 C13.67540226 15.42551447 15.48668201 17.19348314 17.37890625 19.015625 C19.56319308 23.38419867 19.06199949 29.69628518 17.70703125 34.296875 C17.00817154 35.90557094 16.20429005 37.46803038 15.37890625 39.015625 C16.36890625 38.685625 17.35890625 38.355625 18.37890625 38.015625 C19.77330289 37.94897124 21.170605 37.93024301 22.56640625 37.953125 C23.82453125 37.97375 25.08265625 37.994375 26.37890625 38.015625 C27.2761459 43.69814277 24.87504921 46.98166728 21.88671875 51.55078125 C20.34798649 54.06617 19.13222247 56.15837234 18.37890625 59.015625 C19.17831339 61.58949544 19.17831339 61.58949544 20.69140625 64.015625 C24.61716993 70.89915584 25.31747913 77.26133346 23.37890625 85.015625 C26.67890625 86.005625 29.97890625 86.995625 33.37890625 88.015625 C32.37890625 91.015625 32.37890625 91.015625 30.31640625 92.203125 C29.35734375 92.6053125 29.35734375 92.6053125 28.37890625 93.015625 C28.39953125 93.964375 28.42015625 94.913125 28.44140625 95.890625 C28.37890625 99.015625 28.37890625 99.015625 27.37890625 101.015625 C26.76402344 100.96921875 26.14914063 100.9228125 25.515625 100.875 C23.0814545 100.76629701 20.79954223 100.72377527 18.37890625 101.015625 C16.25535058 102.83834427 16.25535058 102.83834427 15.37890625 105.015625 C13.50390625 104.703125 13.50390625 104.703125 11.37890625 104.015625 C9.37890625 101.015625 9.37890625 101.015625 9.37890625 98.015625 C8.28578125 98.61375 7.19265625 99.211875 6.06640625 99.828125 C-1.95324235 103.80961132 -9.70536407 105.45410351 -18.62109375 105.015625 C-18.62109375 107.655625 -18.62109375 110.295625 -18.62109375 113.015625 C-21.62109375 114.015625 -21.62109375 114.015625 -24.05859375 112.890625 C-24.90421875 112.601875 -25.74984375 112.313125 -26.62109375 112.015625 C-27.9744527 112.98835175 -29.30771979 113.9895516 -30.62109375 115.015625 C-33.37109375 114.703125 -33.37109375 114.703125 -35.62109375 114.015625 C-35.95109375 112.035625 -36.28109375 110.055625 -36.62109375 108.015625 C-37.56984375 108.20125 -38.51859375 108.386875 -39.49609375 108.578125 C-42.62109375 109.015625 -42.62109375 109.015625 -44.62109375 108.015625 C-43.22776801 104.64842113 -41.64216515 103.0296726 -38.62109375 101.015625 C-39.01941406 100.59152344 -39.41773437 100.16742188 -39.828125 99.73046875 C-46.36651786 92.49210196 -48.12866473 87.12166688 -47.92578125 77.39453125 C-47.47467422 72.39186997 -46.21969411 67.76384869 -44.62109375 63.015625 C-45.30171875 62.974375 -45.98234375 62.933125 -46.68359375 62.890625 C-50.96381323 61.61566601 -53.75883872 59.42985456 -56.62109375 56.015625 C-58.0791125 53.04065664 -58.84718398 50.05473936 -59.55859375 46.828125 C-59.7596875 45.98386963 -59.96078125 45.13961426 -60.16796875 44.26977539 C-62.94131416 31.98663801 -62.09549165 21.9430471 -55.93359375 10.828125 C-49.71591325 1.12915151 -41.25283998 -3.67978256 -30.20703125 -6.62890625 C-19.70771223 -8.07216611 -8.52355513 -6.45300448 0 0 Z " fill="#F3EEE8" transform="translate(123.62109375,138.984375)"/>
<path d="M0 0 C10.90720049 9.44303632 19.81487183 21.23540629 21.40234375 35.9921875 C21.78335592 43.41787154 21.84736582 50.51498007 19.91796875 57.72265625 C18.8608292 62.37567198 18.50291826 67.22650289 18.40234375 71.9921875 C18.73234375 72.3221875 19.06234375 72.6521875 19.40234375 72.9921875 C19.59334227 74.43327317 19.7257273 75.88223547 19.83203125 77.33203125 C19.90550781 78.23115234 19.97898437 79.13027344 20.0546875 80.05664062 C20.2003706 81.93646381 20.34119159 83.81667171 20.4765625 85.69726562 C21.01270184 92.11730707 22.31316382 97.89915957 24.40234375 103.9921875 C27.04234375 103.9921875 29.68234375 103.9921875 32.40234375 103.9921875 C35.51986046 92.78991078 36.48969666 81.54528384 37.40234375 69.9921875 C39.05234375 70.3221875 40.70234375 70.6521875 42.40234375 70.9921875 C43.04737142 98.90755177 43.04737142 98.90755177 36.40234375 107.9921875 C34.00770185 110.24999272 32.52256633 110.91056837 29.2578125 111.1484375 C24.93722407 110.97647378 22.8849351 110.40134103 19.52734375 107.5546875 C13.76415741 99.12851162 13.78224154 88.81713031 13.40234375 78.9921875 C12.74878906 79.62447266 12.74878906 79.62447266 12.08203125 80.26953125 C11.48648438 80.81738281 10.8909375 81.36523438 10.27734375 81.9296875 C9.69726562 82.47496094 9.1171875 83.02023438 8.51953125 83.58203125 C5.85856582 85.35437169 3.54857572 85.64013038 0.40234375 85.9921875 C0.75167969 87.07757813 1.10101563 88.16296875 1.4609375 89.28125 C1.9207879 90.72649411 2.3804113 92.17181047 2.83984375 93.6171875 C3.06994141 94.33003906 3.30003906 95.04289062 3.53710938 95.77734375 C6.99000781 106.68650113 8.00485508 117.25299439 3.40234375 127.9921875 C0.87782408 132.44803369 -1.87598568 136.45881574 -5.59765625 139.9921875 C-5.03175781 140.37890625 -4.46585937 140.765625 -3.8828125 141.1640625 C-3.14933594 141.68484375 -2.41585937 142.205625 -1.66015625 142.7421875 C-0.92925781 143.25265625 -0.19835937 143.763125 0.5546875 144.2890625 C2.40234375 145.9921875 2.40234375 145.9921875 3.40234375 149.9921875 C0.10234375 150.3221875 -3.19765625 150.6521875 -6.59765625 150.9921875 C-6.72140625 152.1059375 -6.84515625 153.2196875 -6.97265625 154.3671875 C-7.59765625 157.9921875 -7.59765625 157.9921875 -9.59765625 159.9921875 C-15.32214246 159.76769784 -18.88246078 157.97527035 -23.59765625 154.9921875 C-23.59765625 155.6521875 -23.59765625 156.3121875 -23.59765625 156.9921875 C-26.59765625 158.9921875 -26.59765625 158.9921875 -29.28515625 158.6171875 C-30.04828125 158.4109375 -30.81140625 158.2046875 -31.59765625 157.9921875 C-31.92765625 154.6921875 -32.25765625 151.3921875 -32.59765625 147.9921875 C-33.78294922 148.07919922 -33.78294922 148.07919922 -34.9921875 148.16796875 C-42.65128556 148.47433267 -49.21627841 147.6496326 -56.59765625 145.6796875 C-57.39792236 145.46675049 -58.19818848 145.25381348 -59.02270508 145.03442383 C-63.49208018 143.77428814 -67.50126987 142.23075762 -71.59765625 139.9921875 C-72.03078125 141.3534375 -72.03078125 141.3534375 -72.47265625 142.7421875 C-73.36297401 145.31421658 -74.31260038 147.60565516 -75.59765625 149.9921875 C-77.97265625 150.1796875 -77.97265625 150.1796875 -80.59765625 149.9921875 C-82.59765625 146.9921875 -82.59765625 146.9921875 -82.59765625 143.9921875 C-83.23703125 144.1571875 -83.87640625 144.3221875 -84.53515625 144.4921875 C-88.54846607 145.14742176 -92.53824837 145.27735252 -96.59765625 144.9921875 C-97.59765625 143.9921875 -97.59765625 143.9921875 -97.6953125 141.70703125 C-97.67791016 140.33224609 -97.67791016 140.33224609 -97.66015625 138.9296875 C-97.65113281 138.01058594 -97.64210937 137.09148437 -97.6328125 136.14453125 C-97.62121094 135.43425781 -97.60960937 134.72398437 -97.59765625 133.9921875 C-99.90765625 133.3321875 -102.21765625 132.6721875 -104.59765625 131.9921875 C-104.92765625 130.6721875 -105.25765625 129.3521875 -105.59765625 127.9921875 C-102.31274252 125.80224502 -100.76669986 125.63941411 -96.91015625 125.3671875 C-95.41935547 125.25503906 -95.41935547 125.25503906 -93.8984375 125.140625 C-93.13917969 125.09164062 -92.37992188 125.04265625 -91.59765625 124.9921875 C-92.09265625 123.9196875 -92.58765625 122.8471875 -93.09765625 121.7421875 C-97.12318031 110.7827464 -94.02350789 99.68877987 -89.44140625 89.39453125 C-88.54033372 87.56985938 -87.57703379 85.77605374 -86.59765625 83.9921875 C-87.35691406 83.05117187 -88.11617187 82.11015625 -88.8984375 81.140625 C-89.90262859 79.8830399 -90.90651894 78.6252146 -91.91015625 77.3671875 C-92.40966797 76.74972656 -92.90917969 76.13226563 -93.42382812 75.49609375 C-97.7284635 70.07966513 -101.42085246 65.23631416 -100.59765625 57.9921875 C-98.59765625 55.9921875 -98.59765625 55.9921875 -95.47265625 55.6796875 C-90.94140783 56.04511076 -87.77070428 57.23511465 -83.59765625 58.9921875 C-84.01917969 58.30511719 -84.44070312 57.61804688 -84.875 56.91015625 C-85.42285156 56.00910156 -85.97070312 55.10804688 -86.53515625 54.1796875 C-87.35306641 52.83970703 -87.35306641 52.83970703 -88.1875 51.47265625 C-91.63474288 45.40894647 -91.14988153 38.77995655 -90.59765625 31.9921875 C-89.38227275 28.10163924 -87.20421702 25.58235473 -84.28515625 22.7421875 C-81.7284701 20.12604353 -80.11512715 17.7247348 -78.22265625 14.6171875 C-70.51548662 2.26914154 -59.00359317 -5.0513399 -44.9453125 -8.6953125 C-29.20841974 -11.94655003 -12.9755479 -10.02922048 0 0 Z M-67.015625 14.58203125 C-69.62799645 18.56186627 -71.78480197 22.7660775 -73.9609375 26.99609375 C-75.85251048 30.45871064 -77.97482198 33.06960074 -80.59765625 35.9921875 C-83.6620889 40.98807594 -83.24169849 46.32998277 -82.59765625 51.9921875 C-80.45478557 59.76009371 -76.78279026 66.6950954 -70.59765625 71.9921875 C-69.93765625 71.9921875 -69.27765625 71.9921875 -68.59765625 71.9921875 C-69.06816406 72.88679688 -69.53867188 73.78140625 -70.0234375 74.703125 C-77.38102663 88.87657983 -81.20542578 102.12408666 -77.94140625 118.23046875 C-75.9296443 123.94491325 -72.78416067 127.86257003 -67.59765625 130.9921875 C-64.33203084 132.55513342 -61.01714847 133.81049319 -57.59765625 134.9921875 C-56.11265625 135.58 -56.11265625 135.58 -54.59765625 136.1796875 C-50.27583677 137.35018028 -46.05955937 137.72760025 -41.59765625 137.9921875 C-40.49679688 138.06953125 -39.3959375 138.146875 -38.26171875 138.2265625 C-29.88682072 138.55933991 -22.80439911 137.51034672 -15.59765625 132.9921875 C-9.32692545 126.18239388 -8.2322606 119.10520794 -8.4921875 110.08203125 C-8.52699219 109.39238281 -8.56179687 108.70273438 -8.59765625 107.9921875 C-9.39429688 108.4253125 -10.1909375 108.8584375 -11.01171875 109.3046875 C-12.07132812 109.8615625 -13.1309375 110.4184375 -14.22265625 110.9921875 C-15.26679688 111.5490625 -16.3109375 112.1059375 -17.38671875 112.6796875 C-20.75581563 114.05683659 -22.99794087 114.3299907 -26.59765625 113.9921875 C-27.59765625 112.9921875 -27.59765625 112.9921875 -27.6875 111.2421875 C-27.15900601 103.43673774 -24.02679989 98.37014989 -18.50390625 92.9296875 C-14.19561794 89.25328147 -9.81829371 86.53806241 -4.74267578 84.09741211 C2.57621869 80.70853086 2.57621869 80.70853086 7.21484375 74.3671875 C8.66711207 69.10981393 9.31498669 63.63430162 9.96484375 58.2265625 C10.3073825 55.69422247 10.75821807 53.53138754 11.52734375 51.1171875 C13.77968094 42.70725107 13.91308095 31.46854501 9.6484375 23.765625 C6.91724347 19.8785965 4.65250769 17.47785953 -0.11328125 16.44921875 C-5.49145195 16.05111394 -9.04215545 16.77521394 -13.41015625 19.9921875 C-17.44736751 23.56882564 -20.6450452 27.49500247 -23.59765625 31.9921875 C-24.08492187 32.72308594 -24.5721875 33.45398438 -25.07421875 34.20703125 C-27.67564692 37.82197315 -27.67564692 37.82197315 -28.59765625 41.9921875 C-30.24765625 41.6621875 -31.89765625 41.3321875 -33.59765625 40.9921875 C-33.38109375 40.1671875 -33.16453125 39.3421875 -32.94140625 38.4921875 C-31.32177826 31.77373065 -30.2635688 25.39497516 -30.16015625 18.4921875 C-30.14082031 17.203125 -30.12148437 15.9140625 -30.1015625 14.5859375 C-30.68454635 10.36274743 -31.87626594 8.24446414 -34.59765625 4.9921875 C-45.13627611 -2.31685531 -60.1173046 5.87101352 -67.015625 14.58203125 Z " fill="#22211F" transform="translate(252.59765625,125.0078125)"/>
<path d="M0 0 C4.66558536 4.02086108 8.59814751 8.25632147 12.1328125 13.29296875 C13.67540226 15.42551447 15.48668201 17.19348314 17.37890625 19.015625 C19.56319308 23.38419867 19.06199949 29.69628518 17.70703125 34.296875 C17.00817154 35.90557094 16.20429005 37.46803038 15.37890625 39.015625 C16.36890625 38.685625 17.35890625 38.355625 18.37890625 38.015625 C19.77330289 37.94897124 21.170605 37.93024301 22.56640625 37.953125 C23.82453125 37.97375 25.08265625 37.994375 26.37890625 38.015625 C27.2761459 43.69814277 24.87504921 46.98166728 21.88671875 51.55078125 C20.34798649 54.06617 19.13222247 56.15837234 18.37890625 59.015625 C19.17831339 61.58949544 19.17831339 61.58949544 20.69140625 64.015625 C24.61716993 70.89915584 25.31747913 77.26133346 23.37890625 85.015625 C26.67890625 86.005625 29.97890625 86.995625 33.37890625 88.015625 C32.37890625 91.015625 32.37890625 91.015625 30.31640625 92.203125 C29.35734375 92.6053125 29.35734375 92.6053125 28.37890625 93.015625 C28.39953125 93.964375 28.42015625 94.913125 28.44140625 95.890625 C28.37890625 99.015625 28.37890625 99.015625 27.37890625 101.015625 C26.76402344 100.96921875 26.14914063 100.9228125 25.515625 100.875 C23.0814545 100.76629701 20.79954223 100.72377527 18.37890625 101.015625 C16.25535058 102.83834427 16.25535058 102.83834427 15.37890625 105.015625 C13.50390625 104.703125 13.50390625 104.703125 11.37890625 104.015625 C9.37890625 101.015625 9.37890625 101.015625 9.37890625 98.015625 C8.28578125 98.61375 7.19265625 99.211875 6.06640625 99.828125 C-1.95324235 103.80961132 -9.70536407 105.45410351 -18.62109375 105.015625 C-18.62109375 107.655625 -18.62109375 110.295625 -18.62109375 113.015625 C-21.62109375 114.015625 -21.62109375 114.015625 -24.05859375 112.890625 C-24.90421875 112.601875 -25.74984375 112.313125 -26.62109375 112.015625 C-27.9744527 112.98835175 -29.30771979 113.9895516 -30.62109375 115.015625 C-33.37109375 114.703125 -33.37109375 114.703125 -35.62109375 114.015625 C-35.95109375 112.035625 -36.28109375 110.055625 -36.62109375 108.015625 C-37.56984375 108.20125 -38.51859375 108.386875 -39.49609375 108.578125 C-42.62109375 109.015625 -42.62109375 109.015625 -44.62109375 108.015625 C-43.22776801 104.64842113 -41.64216515 103.0296726 -38.62109375 101.015625 C-39.01941406 100.59152344 -39.41773437 100.16742188 -39.828125 99.73046875 C-46.36651786 92.49210196 -48.12866473 87.12166688 -47.92578125 77.39453125 C-47.47467422 72.39186997 -46.21969411 67.76384869 -44.62109375 63.015625 C-45.30171875 62.974375 -45.98234375 62.933125 -46.68359375 62.890625 C-50.96381323 61.61566601 -53.75883872 59.42985456 -56.62109375 56.015625 C-58.0791125 53.04065664 -58.84718398 50.05473936 -59.55859375 46.828125 C-59.7596875 45.98386963 -59.96078125 45.13961426 -60.16796875 44.26977539 C-62.94131416 31.98663801 -62.09549165 21.9430471 -55.93359375 10.828125 C-49.71591325 1.12915151 -41.25283998 -3.67978256 -30.20703125 -6.62890625 C-19.70771223 -8.07216611 -8.52355513 -6.45300448 0 0 Z M-24.8125 5.9921875 C-27.91233817 13.74927046 -25.07641513 22.45966574 -22.62109375 30.015625 C-25.94450979 28.62492515 -27.48852582 27.16910813 -29.49609375 24.203125 C-32.56251887 19.92258232 -35.83701027 16.40766674 -40.62109375 14.015625 C-43.67796339 13.60253451 -46.57227961 13.51653087 -49.62109375 14.015625 C-53.01746973 17.24218218 -54.5470335 19.77084311 -54.82421875 24.4296875 C-55.15936439 34.0067013 -55.15936439 34.0067013 -52.41796875 43.0390625 C-51.62109375 45.015625 -51.62109375 45.015625 -51.38671875 47.8046875 C-50.99470828 51.49145259 -50.47713707 53.77484824 -48.62109375 57.015625 C-44.46688432 60.29808749 -39.69575766 62.49111539 -34.94140625 64.76171875 C-30.20549439 67.09026384 -26.48734279 69.51190943 -24.6953125 74.69140625 C-24.56769531 75.56152344 -24.44007812 76.43164062 -24.30859375 77.328125 C-24.16808594 78.21113281 -24.02757813 79.09414062 -23.8828125 80.00390625 C-23.79644531 80.66777344 -23.71007812 81.33164063 -23.62109375 82.015625 C-28.44351716 81.54283839 -31.58121099 80.6704051 -35.62109375 78.015625 C-36.28109375 78.015625 -36.94109375 78.015625 -37.62109375 78.015625 C-36.80168449 87.48967504 -36.80168449 87.48967504 -31.62109375 95.015625 C-25.95551608 99.22849045 -19.35064128 98.66338893 -12.62109375 98.015625 C-4.55293381 96.66924702 3.34321389 94.77696771 9.37890625 89.015625 C13.51257664 82.24427922 13.42953441 74.69486296 12.37890625 67.015625 C10.83603616 61.84415303 8.51212967 57.20917442 6.04296875 52.4296875 C5.37890625 50.015625 5.37890625 50.015625 6.42578125 47.98828125 C6.9878125 47.35792969 7.54984375 46.72757813 8.12890625 46.078125 C12.56143462 40.67408357 14.00865824 36.06884728 13.37890625 29.015625 C11.62576297 24.43797311 8.82972437 20.80645305 5.8515625 16.96484375 C4.37890625 15.015625 4.37890625 15.015625 2.37890625 11.828125 C-1.28343281 6.6779607 -5.40872295 3.35554811 -11.62109375 2.015625 C-17.05118589 1.2165157 -21.39370933 0.95272444 -24.8125 5.9921875 Z " fill="#242220" transform="translate(123.62109375,138.984375)"/>
<path d="M0 0 C-0.36738281 1.00933594 -0.73476562 2.01867187 -1.11328125 3.05859375 C-2.28804422 7.18011433 -1.53822619 9.98321657 -0.1875 14.0625 C3.44871132 25.29380117 4.75969502 35.89404495 0 47 C-2.52451967 51.45584619 -5.27832943 55.46662824 -9 59 C-8.43410156 59.38671875 -7.86820312 59.7734375 -7.28515625 60.171875 C-6.55167969 60.69265625 -5.81820312 61.2134375 -5.0625 61.75 C-4.33160156 62.26046875 -3.60070312 62.7709375 -2.84765625 63.296875 C-1 65 -1 65 0 69 C-4.95 69.495 -4.95 69.495 -10 70 C-10.12375 71.11375 -10.2475 72.2275 -10.375 73.375 C-11 77 -11 77 -13 79 C-18.72448621 78.77551034 -22.28480453 76.98308285 -27 74 C-27 74.66 -27 75.32 -27 76 C-30 78 -30 78 -32.6875 77.625 C-33.450625 77.41875 -34.21375 77.2125 -35 77 C-35.33 73.7 -35.66 70.4 -36 67 C-36.79019531 67.05800781 -37.58039063 67.11601562 -38.39453125 67.17578125 C-46.05362931 67.48214517 -52.61862216 66.6574451 -60 64.6875 C-60.80026611 64.47456299 -61.60053223 64.26162598 -62.42504883 64.04223633 C-66.89442393 62.78210064 -70.90361362 61.23857012 -75 59 C-75.433125 60.36125 -75.433125 60.36125 -75.875 61.75 C-76.76531776 64.32202908 -77.71494413 66.61346766 -79 69 C-81.375 69.1875 -81.375 69.1875 -84 69 C-86 66 -86 66 -86 63 C-86.639375 63.165 -87.27875 63.33 -87.9375 63.5 C-91.95080982 64.15523426 -95.94059212 64.28516502 -100 64 C-101 63 -101 63 -101.09765625 60.71484375 C-101.08605469 59.79832031 -101.07445312 58.88179688 -101.0625 57.9375 C-101.05347656 57.01839844 -101.04445312 56.09929687 -101.03515625 55.15234375 C-101.01775391 54.08693359 -101.01775391 54.08693359 -101 53 C-103.31 52.34 -105.62 51.68 -108 51 C-108.33 49.68 -108.66 48.36 -109 47 C-105.93691945 44.9579463 -104.56755829 44.47567444 -101 44 C-100.36449219 43.91105469 -99.72898438 43.82210937 -99.07421875 43.73046875 C-96.90996936 43.55520938 -95.12574052 43.54322931 -93 44 C-90.75 46.5625 -90.75 46.5625 -89.62109375 48.19921875 C-86.02824456 52.19031146 -80.75982297 54.62360389 -76 57 C-75.34 57 -74.68 57 -74 57 C-73.731875 56.030625 -73.46375 55.06125 -73.1875 54.0625 C-72.5996875 52.5465625 -72.5996875 52.5465625 -72 51 C-68.66766251 49.88922084 -68.25304126 50.03670275 -65.1875 51.3125 C-64.12208984 51.73595703 -64.12208984 51.73595703 -63.03515625 52.16796875 C-62.36355469 52.44253906 -61.69195312 52.71710938 -61 53 C-55.67711698 55.08286727 -50.66299201 55.66418915 -45 56 C-43.89914063 56.07734375 -42.79828125 56.1546875 -41.6640625 56.234375 C-33.18740263 56.57119592 -26.3275946 55.46231723 -19 51 C-12.95196285 44.37595932 -12.69088462 36.53501912 -13 28 C-13.72445312 28.433125 -14.44890625 28.86625 -15.1953125 29.3125 C-16.16210938 29.869375 -17.12890625 30.42625 -18.125 31 C-19.07632813 31.556875 -20.02765625 32.11375 -21.0078125 32.6875 C-24.3081757 34.1351789 -26.43564528 34.40389289 -30 34 C-32 32 -32 32 -32.1875 30.15234375 C-31.48203228 21.81900634 -27.48150756 16.11028459 -21.5 10.4375 C-17.80552151 7.38865853 -13.80879157 4.92083567 -9.6875 2.5 C-9.07648438 2.13704834 -8.46546875 1.77409668 -7.8359375 1.40014648 C-3.36558411 -1.12186137 -3.36558411 -1.12186137 0 0 Z " fill="#242220" transform="translate(256,206)"/>
<path d="M0 0 C2.49361571 1.20381448 4.68143083 2.45428722 7 4 C7 5.32 7 6.64 7 8 C5.4609375 9.38671875 5.4609375 9.38671875 3.375 10.6875 C-3.28309824 15.35757951 -6.57778204 21.95815634 -9.99609375 29.15234375 C-11.60618961 32.11567193 -13.79957061 34.4521344 -16 37 C-19.06240883 41.99375377 -18.64979606 47.33940548 -18 53 C-15.85466866 60.55930055 -12.5396004 66.4603996 -7 72 C-6.34 72.33 -5.68 72.66 -5 73 C-6.84309783 77.65894174 -8.8091671 82.26165244 -10.78125 86.8671875 C-14.92071829 97.50774381 -16.34964672 110.89503845 -12.375 121.875 C-10.35370116 126.03393143 -7.7934886 128.4135305 -4 131 C-4.66 133.97 -5.32 136.94 -6 140 C-10.21135709 139.42676628 -13.01294352 137.99298383 -16.5625 135.6875 C-17.49191406 135.09324219 -18.42132813 134.49898437 -19.37890625 133.88671875 C-21.87714732 132.08843196 -23.97244535 130.31379765 -26 128 C-26 127.34 -26 126.68 -26 126 C-26.66 126 -27.32 126 -28 126 C-32.72787974 115.75626056 -31.70248062 106.52861213 -28.15625 96.00390625 C-26.678931 92.16587143 -24.97863055 88.60393422 -23 85 C-23.75925781 84.05898437 -24.51851562 83.11796875 -25.30078125 82.1484375 C-26.30497234 80.8908524 -27.30886269 79.6330271 -28.3125 78.375 C-28.81201172 77.75753906 -29.31152344 77.14007813 -29.82617188 76.50390625 C-34.13080725 71.08747763 -37.82319621 66.24412666 -37 59 C-35 57 -35 57 -31.875 56.6875 C-27.34375158 57.05292326 -24.17304803 58.24292715 -20 60 C-20.42152344 59.31292969 -20.84304687 58.62585938 -21.27734375 57.91796875 C-22.09912109 56.56638672 -22.09912109 56.56638672 -22.9375 55.1875 C-23.75541016 53.84751953 -23.75541016 53.84751953 -24.58984375 52.48046875 C-28.03708663 46.41675897 -27.55222528 39.78776905 -27 33 C-25.7846165 29.10945174 -23.60656077 26.59016723 -20.6875 23.75 C-18.13081385 21.13385603 -16.5174709 18.7325473 -14.625 15.625 C-10.71977426 9.31197712 -6.16447358 4.19184203 0 0 Z " fill="#23211F" transform="translate(189,124)"/>
<path d="M0 0 C0.99 0.33 1.98 0.66 3 1 C3 1.66 3 2.32 3 3 C3.99 3 4.98 3 6 3 C12.62527984 16.52872028 15.52589936 29.74922953 11.515625 44.73046875 C10.45848545 49.38348448 10.10057451 54.23431539 10 59 C10.495 59.495 10.495 59.495 11 60 C11.19099852 61.44108567 11.32338355 62.89004797 11.4296875 64.33984375 C11.50316406 65.23896484 11.57664062 66.13808594 11.65234375 67.06445312 C11.79802685 68.94427631 11.93884784 70.82448421 12.07421875 72.70507812 C12.61035809 79.12511957 13.91082007 84.90697207 16 91 C18.64 91 21.28 91 24 91 C27.11751671 79.79772328 28.08735291 68.55309634 29 57 C30.65 57.33 32.3 57.66 34 58 C34.64502767 85.91536427 34.64502767 85.91536427 28 95 C25.6053581 97.25780522 24.12022258 97.91838087 20.85546875 98.15625 C16.53488032 97.98428628 14.48259135 97.40915353 11.125 94.5625 C5.36181366 86.13632412 5.37989779 75.82494281 5 66 C4.55269531 66.42152344 4.10539062 66.84304687 3.64453125 67.27734375 C-2.3602812 72.71880492 -2.3602812 72.71880492 -7 73 C-6.67 70.69 -6.34 68.38 -6 66 C-5.34 66 -4.68 66 -4 66 C-1.62946561 59.14125382 -0.3908391 52.42552135 0.52734375 45.234375 C0.89482696 42.7196965 1.36415222 40.52991746 2.125 38.125 C4.40811745 29.60013403 4.41382731 18.61498335 0.22265625 10.7734375 C-1.59967687 8.13018116 -3.56714708 6.09495668 -6 4 C-3.1875 1.9375 -3.1875 1.9375 0 0 Z " fill="#232220" transform="translate(261,138)"/>
<path d="M0 0 C1.890625 0.2421875 1.890625 0.2421875 4 1 C7.57921471 7.22355991 7.70185855 14.1925658 6 21 C9.3 21.99 12.6 22.98 16 24 C15 27 15 27 12.9375 28.1875 C12.298125 28.455625 11.65875 28.72375 11 29 C11.020625 29.94875 11.04125 30.8975 11.0625 31.875 C11 35 11 35 10 37 C9.38511719 36.95359375 8.77023438 36.9071875 8.13671875 36.859375 C5.70254825 36.75067201 3.42063598 36.70815027 1 37 C-1.12355567 38.82271927 -1.12355567 38.82271927 -2 41 C-3.875 40.6875 -3.875 40.6875 -6 40 C-8 37 -8 37 -8 34 C-9.093125 34.598125 -10.18625 35.19625 -11.3125 35.8125 C-19.3321486 39.79398632 -27.08427032 41.43847851 -36 41 C-36 43.64 -36 46.28 -36 49 C-39 50 -39 50 -41.4375 48.875 C-42.283125 48.58625 -43.12875 48.2975 -44 48 C-45.35335895 48.97272675 -46.68662604 49.9739266 -48 51 C-50.75 50.6875 -50.75 50.6875 -53 50 C-53.33 48.02 -53.66 46.04 -54 44 C-54.94875 44.185625 -55.8975 44.37125 -56.875 44.5625 C-60 45 -60 45 -62 44 C-60.59958479 40.61566324 -59.33473395 38.62461397 -56 37 C-52.9472587 37.05272437 -50.00313371 37.46739295 -47 38 C-46.63390625 37.17628906 -46.2678125 36.35257813 -45.890625 35.50390625 C-45.26671875 34.67761719 -44.6428125 33.85132813 -44 33 C-41.171875 32.65234375 -41.171875 32.65234375 -37.75 32.9375 C-27.65135192 33.30415216 -17.04540904 31.53689484 -9 25 C-5.39745146 19.53511704 -5.56735517 14.41052923 -5.40625 8.046875 C-5.2721875 7.04140625 -5.138125 6.0359375 -5 5 C-2 3 -2 3 0 2 C0 1.34 0 0.68 0 0 Z " fill="#272421" transform="translate(141,203)"/>
<path d="M0 0 C2.57701532 2.62397687 3.48796958 4.72500777 3.625 8.375 C3.24684925 19.53866793 -5.1144019 31.49337704 -13 39 C-15.125 39.875 -15.125 39.875 -17 40 C-24.49390339 35.74670348 -29.48631949 26.33293829 -32.3359375 18.453125 C-33.39449018 14.54270688 -33.90228831 10.98576054 -33 7 C-30.61506709 3.56289081 -29.21820703 2.26482761 -25.125 1.375 C-20.91630913 2.21673817 -18.26119654 4.29841706 -15 7 C-14.21625 6.030625 -13.4325 5.06125 -12.625 4.0625 C-9.23202236 -0.13407761 -5.3722319 -1.15955104 0 0 Z " fill="#C98C6C" transform="translate(165,97)"/>
<path d="M0 0 C1.30475618 2.60951236 1.11301572 4.52701285 1.09765625 7.4453125 C1.09443359 8.52167969 1.09121094 9.59804687 1.08789062 10.70703125 C1.07951172 11.83496094 1.07113281 12.96289062 1.0625 14.125 C1.05798828 15.26066406 1.05347656 16.39632812 1.04882812 17.56640625 C1.03701615 20.37765638 1.02054507 23.1888023 1 26 C2.12921875 25.26910156 2.12921875 25.26910156 3.28125 24.5234375 C6.79621322 22.55384604 9.02011041 22.57358326 13 23 C17.6 25.2 17.6 25.2 19 28 C19.69102387 35.36336915 19.63735566 41.95325194 15 48 C12.10546848 50.50337861 10.35285331 50.94867588 6.5625 51.5 C1.94906249 50.8525 0.15884505 49.37922958 -3 46 C-9.02087605 34.24495629 -6.93320797 13.62056521 -5 1 C-3 0 -3 0 0 0 Z M3 33 C1.47508002 36.04983996 1.76437452 38.6423369 2 42 C2.96117905 44.12870693 2.96117905 44.12870693 5 45 C8.06496649 45.32294477 8.06496649 45.32294477 11 44 C13.54218601 39.67828378 14.58104906 35.99702188 14 31 C13.34 30.34 12.68 29.68 12 29 C7.29930854 29 6.35651347 29.91563627 3 33 Z " fill="#020202" transform="translate(417,186)"/>
<path d="M0 0 C2.475 0.495 2.475 0.495 5 1 C5.64502767 28.91536427 5.64502767 28.91536427 -1 38 C-3.3946419 40.25780522 -4.87977742 40.91838087 -8.14453125 41.15625 C-12.46511968 40.98428628 -14.51740865 40.40915353 -17.875 37.5625 C-22.43573991 30.85552955 -23.25756309 23.59661413 -23.3125 15.6875 C-23.31805908 15.00574707 -23.32361816 14.32399414 -23.3293457 13.62158203 C-23.27229156 9.65705066 -22.73353321 6.57066403 -21 3 C-20.01 3 -19.02 3 -18 3 C-17.95512451 3.58378418 -17.91024902 4.16756836 -17.86401367 4.76904297 C-17.64974755 7.47205142 -17.41870251 10.17338952 -17.1875 12.875 C-17.11724609 13.7928125 -17.04699219 14.710625 -16.97460938 15.65625 C-16.40893732 22.08228459 -15.0872862 27.89819155 -13 34 C-10.36 34 -7.72 34 -5 34 C-1.88248329 22.79772328 -0.91264709 11.55309634 0 0 Z " fill="#010101" transform="translate(290,195)"/>
<path d="M0 0 C0.625 2.0625 0.625 2.0625 1 4 C-1.41979659 5.00824858 -3.67100208 5.93602818 -6.25 6.4375 C-7.11625 6.7159375 -7.11625 6.7159375 -8 7 C-8.33 7.99 -8.66 8.98 -9 10 C-13.67201205 11.20568053 -18.21496292 11.09382426 -23 11 C-23 13.64 -23 16.28 -23 19 C-26 20 -26 20 -28.4375 18.875 C-29.283125 18.58625 -30.12875 18.2975 -31 18 C-32.35335895 18.97272675 -33.68662604 19.9739266 -35 21 C-37.75 20.6875 -37.75 20.6875 -40 20 C-40.33 18.02 -40.66 16.04 -41 14 C-42.423125 14.2784375 -42.423125 14.2784375 -43.875 14.5625 C-47 15 -47 15 -49 14 C-47.59958479 10.61566324 -46.33473395 8.62461397 -43 7 C-39.9472587 7.05272437 -37.00313371 7.46739295 -34 8 C-33.63390625 7.17628906 -33.2678125 6.35257813 -32.890625 5.50390625 C-32.26671875 4.67761719 -31.6428125 3.85132813 -31 3 C-28.171875 2.65234375 -28.171875 2.65234375 -24.75 2.9375 C-17.55091939 3.23746169 -11.84047219 1.88964755 -4.984375 -0.22265625 C-2 -1 -2 -1 0 0 Z " fill="#292523" transform="translate(128,233)"/>
<path d="M0 0 C2.16201777 -0.17507865 3.95015789 -0.18342583 6.07421875 0.26953125 C8.26171875 2.76953125 8.26171875 2.76953125 9.37890625 4.40234375 C13.27406056 8.69239849 19.07960322 11.38830355 24.07421875 14.26953125 C23.35180677 18.38657819 22.05068164 21.57440497 20.07421875 25.26953125 C17.69921875 25.45703125 17.69921875 25.45703125 15.07421875 25.26953125 C13.07421875 22.26953125 13.07421875 22.26953125 13.07421875 19.26953125 C12.43484375 19.43453125 11.79546875 19.59953125 11.13671875 19.76953125 C7.12340893 20.42476551 3.13362663 20.55469627 -0.92578125 20.26953125 C-1.92578125 19.26953125 -1.92578125 19.26953125 -2.0234375 16.984375 C-2.01183594 16.06785156 -2.00023437 15.15132813 -1.98828125 14.20703125 C-1.97925781 13.28792969 -1.97023437 12.36882812 -1.9609375 11.421875 C-1.94353516 10.35646484 -1.94353516 10.35646484 -1.92578125 9.26953125 C-4.23578125 8.60953125 -6.54578125 7.94953125 -8.92578125 7.26953125 C-9.25578125 5.94953125 -9.58578125 4.62953125 -9.92578125 3.26953125 C-6.45526607 0.95585447 -4.05425048 0.56743059 0 0 Z " fill="#C88B6C" transform="translate(156.92578125,249.73046875)"/>
<path d="M0 0 C1.32 0.33 2.64 0.66 4 1 C4.33 2.32 4.66 3.64 5 5 C5.61875 4.360625 6.2375 3.72125 6.875 3.0625 C10.13735344 -0.10390187 12.43233337 -0.19853359 16.9296875 -0.5234375 C20.24186175 0.31398014 21.23426301 2.16179803 23 5 C23.67796317 8.38981586 23.93796575 11.69329233 24.21484375 15.13671875 C24.47394531 16.08160156 24.73304688 17.02648437 25 18 C27.46125342 19.47655472 27.46125342 19.47655472 30 20 C29.67 21.65 29.34 23.3 29 25 C26.27678692 25.75644808 24.54191176 26.17031512 21.8125 25.3125 C18.69802913 23.05719351 18.09374793 20.47915609 17.3671875 16.765625 C17.20476562 15.60546875 17.04234375 14.4453125 16.875 13.25 C16.70742188 12.07953125 16.53984375 10.9090625 16.3671875 9.703125 C16.24601562 8.81109375 16.12484375 7.9190625 16 7 C13.07424451 7.3333769 11.41998109 7.60882293 9.234375 9.64453125 C4.90357279 15.96978185 4.02573751 21.39456677 4 29 C2.125 29.625 2.125 29.625 0 30 C-2.55166371 27.44833629 -2.25696287 26.48677233 -2.265625 22.94921875 C-2.26820313 21.94052734 -2.27078125 20.93183594 -2.2734375 19.89257812 C-2.26183594 18.30606445 -2.26183594 18.30606445 -2.25 16.6875 C-2.25773437 15.64142578 -2.26546875 14.59535156 -2.2734375 13.51757812 C-2.27085937 12.50501953 -2.26828125 11.49246094 -2.265625 10.44921875 C-2.26336914 9.52455811 -2.26111328 8.59989746 -2.25878906 7.6472168 C-1.97888321 4.78399122 -1.18735078 2.60727846 0 0 Z " fill="#010101" transform="translate(307,209)"/>
<path d="M0 0 C2.125 0.375 2.125 0.375 4 1 C3.51489327 8.98298437 1.24655481 15.87308782 -1.4375 23.375 C-1.84548828 24.54933594 -2.25347656 25.72367188 -2.67382812 26.93359375 C-5.712481 35.5687215 -5.712481 35.5687215 -8 39 C-10.30761719 38.86206055 -10.30761719 38.86206055 -13 38 C-14.65332031 35.50317383 -14.65332031 35.50317383 -16.078125 32.20703125 C-16.59890625 31.01916016 -17.1196875 29.83128906 -17.65625 28.60742188 C-17.91792969 27.98407959 -18.17960937 27.3607373 -18.44921875 26.71850586 C-19.24327073 24.82851689 -20.06399933 22.95210907 -20.890625 21.07617188 C-23.21500426 15.69232841 -25.23264389 10.84586834 -26 5 C-24.35 4.67 -22.7 4.34 -21 4 C-19.89324381 6.1862225 -18.78955622 8.37390948 -17.6875 10.5625 C-17.37876953 11.17158203 -17.07003906 11.78066406 -16.75195312 12.40820312 C-14.6720933 16.54602951 -12.7871417 20.72735662 -11 25 C-9.22585837 22.33878756 -8.33915731 20.38589304 -7.34375 17.40234375 C-7.04339844 16.51869141 -6.74304688 15.63503906 -6.43359375 14.72460938 C-5.81002133 12.86302392 -5.18762968 11.00104253 -4.56640625 9.13867188 C-4.26605469 8.25630859 -3.96570313 7.37394531 -3.65625 6.46484375 C-3.25116211 5.25235962 -3.25116211 5.25235962 -2.83789062 4.01538086 C-2 2 -2 2 0 0 Z " fill="#010101" transform="translate(382,196)"/>
<path d="M0 0 C3.4872241 1.89523049 6.02770003 3.78299288 8.875 6.5625 C8.875 7.5525 8.875 8.5425 8.875 9.5625 C5.575 9.8925 2.275 10.2225 -1.125 10.5625 C-1.24875 11.67625 -1.3725 12.79 -1.5 13.9375 C-2.125 17.5625 -2.125 17.5625 -4.125 19.5625 C-9.84948621 19.33801034 -13.40980453 17.54558285 -18.125 14.5625 C-18.125 15.2225 -18.125 15.8825 -18.125 16.5625 C-21.125 18.5625 -21.125 18.5625 -23.8125 18.1875 C-24.9571875 17.878125 -24.9571875 17.878125 -26.125 17.5625 C-26.31906478 15.91742782 -26.50507935 14.27140406 -26.6875 12.625 C-26.79191406 11.70847656 -26.89632812 10.79195313 -27.00390625 9.84765625 C-27.04386719 9.09355469 -27.08382812 8.33945312 -27.125 7.5625 C-25.18367773 5.62117773 -21.71972232 5.7175418 -19.0625 5.25 C-14.58160161 4.43322731 -10.54469693 3.5522076 -6.5625 1.25 C-3.125 -0.4375 -3.125 -0.4375 0 0 Z " fill="#C68A6B" transform="translate(247.125,265.4375)"/>
<path d="M0 0 C2 2 2 2 2.5625 5.75 C2.49481929 8.39921619 2.22479074 9.68343079 0.6796875 11.859375 C-2.57471918 14.92406291 -4.39233554 15.94212719 -8.9375 16.375 C-10.4534375 16.189375 -10.4534375 16.189375 -12 16 C-11.30487721 18.69682467 -11.30487721 18.69682467 -9 21 C-5.30318076 21.46346554 -1.70787035 21.28328381 2 21 C1.6875 23.375 1.6875 23.375 1 26 C-2.70862983 28.47241989 -5.69905615 28.66668695 -10 28 C-13.12489006 26.37968664 -15.24482424 25.04286176 -17.3125 22.1875 C-19.42379675 15.4697376 -19.25040959 10.24359252 -16 4 C-13.73061465 1.32491448 -11.19254748 -0.44099337 -8 -1.9375 C-5.0188252 -2.03066171 -2.7339519 -1.129241 0 0 Z M-10.25 5.8125 C-12.31234752 7.92353993 -12.31234752 7.92353993 -12 11 C-7.7212019 10.58413646 -7.7212019 10.58413646 -4.125 8.4375 C-3.75375 7.963125 -3.3825 7.48875 -3 7 C-3.33 6.01 -3.66 5.02 -4 4 C-7.96236924 3.58178031 -7.96236924 3.58178031 -10.25 5.8125 Z " fill="#020202" transform="translate(463,210)"/>
<path d="M0 0 C1.32 0.66 2.64 1.32 4 2 C4 3.32 4 4.64 4 6 C4.66 6 5.32 6 6 6 C6.33 6.66 6.66 7.32 7 8 C8.58205199 8.65990875 10.19159503 9.25479477 11.8125 9.8125 C16.13002647 11.44933049 18.52635685 12.95222031 21 17 C20.67 17.66 20.34 18.32 20 19 C19.443125 18.195625 18.88625 17.39125 18.3125 16.5625 C14.63104192 12.75186796 9.65951448 13.24794899 4.66796875 13.04296875 C3.78753906 13.02878906 2.90710938 13.01460937 2 13 C2 12.34 2 11.68 2 11 C0.68 11.33 -0.64 11.66 -2 12 C-1.484375 12.4125 -0.96875 12.825 -0.4375 13.25 C0.036875 13.8275 0.51125 14.405 1 15 C0.6875 17.1875 0.6875 17.1875 0 19 C-7.02082248 19.81637471 -13.95326396 17.54917116 -20 14 C-20.8828125 11.32421875 -20.8828125 11.32421875 -21 9 C-16.74897771 6.87448886 -11.32682977 7.56674946 -6.9375 9 C-6.298125 9.33 -5.65875 9.66 -5 10 C-4.731875 9.278125 -4.46375 8.55625 -4.1875 7.8125 C-3.01017502 5.02409874 -1.60854116 2.55904276 0 0 Z " fill="#C4937B" transform="translate(229,157)"/>
<path d="M0 0 C1.6254308 0.14095064 3.25034051 0.28792087 4.875 0.4375 C5.77992188 0.51871094 6.68484375 0.59992188 7.6171875 0.68359375 C10 1 10 1 12 2 C11 5 11 5 8.9375 6.1875 C8.298125 6.455625 7.65875 6.72375 7 7 C7.020625 7.94875 7.04125 8.8975 7.0625 9.875 C7 13 7 13 6 15 C5.07767578 14.93039063 5.07767578 14.93039063 4.13671875 14.859375 C1.70254825 14.75067201 -0.57936402 14.70815027 -3 15 C-5.12355567 16.82271927 -5.12355567 16.82271927 -6 19 C-7.875 18.6875 -7.875 18.6875 -10 18 C-12 15 -12 15 -11.90234375 12.5390625 C-10.75521245 9.31120386 -9.34523973 8.325144 -6.5625 6.375 C-3.63364366 4.2970634 -2.02205373 3.03308059 0 0 Z " fill="#C78D6E" transform="translate(145,225)"/>
<path d="M0 0 C1.24394531 0.24878906 2.48789063 0.49757812 3.76953125 0.75390625 C5.81705729 1.16341146 7.86458333 1.57291667 9.91210938 1.98242188 C10.56630859 2.11326172 11.22050781 2.24410156 11.89453125 2.37890625 C12.91933594 2.58386719 13.94414063 2.78882813 15 3 C15 5.64 15 8.28 15 11 C12 12 12 12 9.5625 10.875 C8.716875 10.58625 7.87125 10.2975 7 10 C5.64664105 10.97272675 4.31337396 11.9739266 3 13 C0.25 12.6875 0.25 12.6875 -2 12 C-2.33 10.02 -2.66 8.04 -3 6 C-4.423125 6.2784375 -4.423125 6.2784375 -5.875 6.5625 C-9 7 -9 7 -11 6 C-8.5938113 0.18504398 -6.02152338 -1.41876989 0 0 Z " fill="#C58A6C" transform="translate(90,241)"/>
<path d="M0 0 C1.32 0.66 2.64 1.32 4 2 C3.98839844 3.0621875 3.97679687 4.124375 3.96484375 5.21875 C3.8781229 15.64610915 3.8781229 15.64610915 5 26 C2.625 26.1875 2.625 26.1875 0 26 C-4.17378162 19.73932756 -3.82701988 10.28565135 -3 3 C-1.484375 1.109375 -1.484375 1.109375 0 0 Z " fill="#020202" transform="translate(346,210)"/>
<path d="M0 0 C0.99 0.33 1.98 0.66 3 1 C3.06058594 2.31355469 3.12117188 3.62710938 3.18359375 4.98046875 C3.26803256 6.71615541 3.35267888 8.45183198 3.4375 10.1875 C3.47681641 11.05181641 3.51613281 11.91613281 3.55664062 12.80664062 C3.76347016 16.95914122 4.00103531 20.94537862 5 25 C2.625 25.625 2.625 25.625 0 26 C-4.04499629 21.95500371 -3.21592401 16.26752584 -3.25 10.875 C-3.2809375 9.63943359 -3.2809375 9.63943359 -3.3125 8.37890625 C-3.31765625 7.59128906 -3.3228125 6.80367187 -3.328125 5.9921875 C-3.3374707 5.27401855 -3.34681641 4.55584961 -3.35644531 3.81591797 C-3.23881836 3.21666504 -3.12119141 2.61741211 -3 2 C-2.01 1.34 -1.02 0.68 0 0 Z " fill="#020202" transform="translate(397,210)"/>
<path d="M0 0 C1.32 0.66 2.64 1.32 4 2 C4 3.32 4 4.64 4 6 C4.66 6 5.32 6 6 6 C6.33 6.66 6.66 7.32 7 8 C8.58205199 8.65990875 10.19159503 9.25479477 11.8125 9.8125 C16.13002647 11.44933049 18.52635685 12.95222031 21 17 C20.67 17.66 20.34 18.32 20 19 C19.443125 18.195625 18.88625 17.39125 18.3125 16.5625 C14.63104192 12.75186796 9.65951448 13.24794899 4.66796875 13.04296875 C3.78753906 13.02878906 2.90710938 13.01460937 2 13 C2 12.34 2 11.68 2 11 C-0.31 11 -2.62 11 -5 11 C-4.32902328 6.80639551 -2.1441606 3.59665648 0 0 Z " fill="#E6E2DC" transform="translate(229,157)"/>
<path d="M0 0 C0.99 0.33 1.98 0.66 3 1 C2.030625 1.5775 1.06125 2.155 0.0625 2.75 C-3.09469292 4.64792862 -3.09469292 4.64792862 -3.875 7.25 C-3.91625 7.8275 -3.9575 8.405 -4 9 C-3.34 9 -2.68 9 -2 9 C-2.20703125 11.32421875 -2.20703125 11.32421875 -3 14 C-7.65878738 17.55331241 -13.10497449 19.77566125 -19 19 C-18.44225728 15.76509224 -17.62788492 14.02144994 -15 12 C-14.01 12 -13.02 12 -12 12 C-12 11.34 -12 10.68 -12 10 C-10.35 9.67 -8.7 9.34 -7 9 C-6.95875 8.2575 -6.9175 7.515 -6.875 6.75 C-5.63175128 2.84264687 -3.55635005 1.84930203 0 0 Z " fill="#C4896B" transform="translate(113,157)"/>
<path d="M0 0 C1.75 0.125 1.75 0.125 4 1 C6.25 4.0625 6.25 4.0625 8 7 C7.1875 8.9375 7.1875 8.9375 6 11 C3 12 3 12 0.625 11.75 C-3.15764813 12.1102522 -4.41452455 14.34823031 -7 17 C-8.32 17 -9.64 17 -11 17 C-9.73461332 13.09839108 -8.65525211 10.97581195 -5 9 C-1.25 8.3125 -1.25 8.3125 2 8 C1.01 7.34 0.02 6.68 -1 6 C-0.67 4.02 -0.34 2.04 0 0 Z " fill="#EFE8E0" transform="translate(90,161)"/>
<path d="M0 0 C0.50958519 2.03834076 1.01372981 4.06668764 1.4375 6.125 C1.90475673 8.22082328 1.90475673 8.22082328 4 10 C4.66 9.67 5.32 9.34 6 9 C8.625 9.9375 8.625 9.9375 11 11 C7.90609944 14.40329062 5.51302072 15.87895834 0.875 16.25 C-2 16 -2 16 -4 14 C-4.21703776 8.73941819 -3.16027074 4.25949535 0 0 Z " fill="#282623" transform="translate(228,224)"/>
<path d="M0 0 C0.99 0.66 1.98 1.32 3 2 C3.99 2.33 4.98 2.66 6 3 C6.33 3.33 6.66 3.66 7 4 C7.66 4.33 8.32 4.66 9 5 C6.03 9.95 6.03 9.95 3 15 C1.35 14.67 -0.3 14.34 -2 14 C-1.34 9.38 -0.68 4.76 0 0 Z " fill="#34312F" transform="translate(221,152)"/>
<path d="M0 0 C0.33 0 0.66 0 1 0 C1.09796875 0.82242188 1.1959375 1.64484375 1.296875 2.4921875 C2.28408082 9.86218954 3.86287541 16.25365926 7 23 C5.68 22.67 4.36 22.34 3 22 C2.67 22.99 2.34 23.98 2 25 C1.34 23.68 0.68 22.36 0 21 C0.66 20.67 1.32 20.34 2 20 C1.566875 19.38511719 1.13375 18.77023438 0.6875 18.13671875 C0.130625 17.32847656 -0.42625 16.52023438 -1 15.6875 C-1.556875 14.88699219 -2.11375 14.08648437 -2.6875 13.26171875 C-4 11 -4 11 -4 8 C-3.01 8 -2.02 8 -1 8 C-0.67 5.36 -0.34 2.72 0 0 Z " fill="#2F2D2A" transform="translate(169,167)"/>
<path d="M0 0 C2.875 1.8125 2.875 1.8125 5 4 C5 4.99 5 5.98 5 7 C2.69 7 0.38 7 -2 7 C-2 6.34 -2 5.68 -2 5 C-4.97 4.505 -4.97 4.505 -8 4 C-8 3.01 -8 2.02 -8 1 C-5.14675563 -0.42662219 -3.16545451 -0.31033868 0 0 Z " fill="#C88C6B" transform="translate(223,168)"/>
<path d="M0 0 C2.64 1.32 5.28 2.64 8 4 C7.39301257 8.12751449 5.96189209 11.3321148 4 15 C2.35 15 0.7 15 -1 15 C-1.66 13.68 -2.32 12.36 -3 11 C-0.69 10.34 1.62 9.68 4 9 C4.33 7.68 4.66 6.36 5 5 C2.525 4.01 2.525 4.01 0 3 C0 2.01 0 1.02 0 0 Z " fill="#C88D70" transform="translate(173,260)"/>
<path d="M0 0 C0.99 0.66 1.98 1.32 3 2 C2.67 6.62 2.34 11.24 2 16 C-2.70454545 9.72727273 -2.70454545 9.72727273 -4 7 C-3.3125 4.875 -3.3125 4.875 -2 3 C-1.34 2.01 -0.68 1.02 0 0 Z " fill="#2C2926" transform="translate(132,184)"/>
<path d="M0 0 C5.75 1.75 5.75 1.75 8 4 C7.9375 5.875 7.9375 5.875 7 8 C4.4375 10.25 4.4375 10.25 2 12 C1.34 8.04 0.68 4.08 0 0 Z " fill="#EBE7E3" transform="translate(86,217)"/>
<path d="M0 0 C0.66 1.32 1.32 2.64 2 4 C-0.475 3.505 -0.475 3.505 -3 3 C-3 2.34 -3 1.68 -3 1 C-7.49365277 2.81453912 -10.39650543 4.01932133 -13 8.25 C-13.33 9.1575 -13.66 10.065 -14 11 C-16.475 10.01 -16.475 10.01 -19 9 C-18.67 7.68 -18.34 6.36 -18 5 C-16.515 5.99 -16.515 5.99 -15 7 C-14.21625 6.030625 -13.4325 5.06125 -12.625 4.0625 C-8.81028763 -0.65569688 -5.82970774 -0.09402754 0 0 Z " fill="#C39075" transform="translate(165,97)"/>
<path d="M0 0 C2.875 0.25 2.875 0.25 6 1 C7.375 3.0625 7.375 3.0625 8 5 C6.02 5.33 4.04 5.66 2 6 C2 5.34 2 4.68 2 4 C1.34 3.67 0.68 3.34 0 3 C0 3.66 0 4.32 0 5 C-0.99 5.66 -1.98 6.32 -3 7 C-3 7.99 -3 8.98 -3 10 C-4.98 10 -6.96 10 -9 10 C-8.2575 9.278125 -7.515 8.55625 -6.75 7.8125 C-4.30709485 5.31407427 -2.1318953 2.76356798 0 0 Z " fill="#BB8A75" transform="translate(145,225)"/>
<path d="M0 0 C5.19666421 1.3610311 8.2137251 3.30387451 12 7 C12 7.99 12 8.98 12 10 C9.36 10 6.72 10 4 10 C4.33 9.34 4.66 8.68 5 8 C5.66 8 6.32 8 7 8 C4.4837822 5.39391727 1.94865641 3.10618315 -1 1 C-0.67 0.67 -0.34 0.34 0 0 Z " fill="#C58A6E" transform="translate(244,265)"/>
<path d="M0 0 C0.99 0.33 1.98 0.66 3 1 C2.030625 1.5775 1.06125 2.155 0.0625 2.75 C-3.09469292 4.64792862 -3.09469292 4.64792862 -3.875 7.25 C-3.91625 7.8275 -3.9575 8.405 -4 9 C-3.34 9 -2.68 9 -2 9 C-2.33 10.65 -2.66 12.3 -3 14 C-3.33 13.01 -3.66 12.02 -4 11 C-6.31 11 -8.62 11 -11 11 C-10.67 10.34 -10.34 9.68 -10 9 C-9.01 9 -8.02 9 -7 9 C-6.95875 8.2575 -6.9175 7.515 -6.875 6.75 C-5.63175128 2.84264687 -3.55635005 1.84930203 0 0 Z " fill="#E5D5C9" transform="translate(113,157)"/>
<path d="M0 0 C1 4 1 4 1.4375 6 C2.04768356 8.16954155 2.93783428 10.01729065 4 12 C2 12 0 12 -2 12 C-2.66 12.66 -3.32 13.32 -4 14 C-3.66009167 8.62007164 -3.31442207 4.46726453 0 0 Z " fill="#312F2D" transform="translate(228,224)"/>
<path d="M0 0 C2.5 0.125 2.5 0.125 3.5 1.125 C3.625 3.625 3.625 3.625 3.5 6.125 C2.5 7.125 2.5 7.125 -0.0625 7.1875 C-1.2690625 7.1565625 -1.2690625 7.1565625 -2.5 7.125 C-2.88133299 5.1335944 -3.21325582 3.13220923 -3.5 1.125 C-2.5 0.125 -2.5 0.125 0 0 Z " fill="#020202" transform="translate(346.5,196.875)"/>
<path d="M0 0 C0 0.66 0 1.32 0 2 C-0.8353125 2.37125 -0.8353125 2.37125 -1.6875 2.75 C-4.14724713 3.97628912 -4.14724713 3.97628912 -6.5 6.125 C-9 8 -9 8 -13 8 C-10.64175733 0.72875178 -7.4631798 -0.43056807 0 0 Z " fill="#A09B96" transform="translate(92,170)"/>
<path d="M0 0 C1.67542976 0.28604898 3.34385343 0.61781233 5 1 C5.38218767 2.65614657 5.71395102 4.32457024 6 6 C5 7 5 7 2.5 7.125 C0 7 0 7 -1 6 C-1.125 3.5 -1.125 3.5 -1 1 C-0.67 0.67 -0.34 0.34 0 0 Z " fill="#030303" transform="translate(395,197)"/>
<path d="M0 0 C0.33 0 0.66 0 1 0 C1.33 3.3 1.66 6.6 2 10 C1.01 10.495 1.01 10.495 0 11 C-0.33 11.66 -0.66 12.32 -1 13 C-2.9375 12.25 -2.9375 12.25 -5 11 C-5.75 8.875 -5.75 8.875 -6 7 C-5.01 6.34 -4.02 5.68 -3 5 C-2.01 5.33 -1.02 5.66 0 6 C0 4.02 0 2.04 0 0 Z " fill="#2D2B28" transform="translate(72,184)"/>
<path d="M0 0 C3.40547358 1.96878941 5.67521135 3.95603649 6.875 7.8125 C6.91625 8.534375 6.9575 9.25625 7 10 C5.88625 8.8553125 5.88625 8.8553125 4.75 7.6875 C3.8425 6.800625 2.935 5.91375 2 5 C1.4225 4.4225 0.845 3.845 0.25 3.25 C-3.27510732 1.29160705 -7.02487068 1.24632212 -11 1 C-6.92660885 -1.28572385 -4.58216139 -1.18504174 0 0 Z " fill="#494440" transform="translate(205,152)"/>
<path d="M0 0 C1.32 0.33 2.64 0.66 4 1 C4 1.66 4 2.32 4 3 C4.7425 3.7115625 4.7425 3.7115625 5.5 4.4375 C7 6 7 6 7 9 C6.01 9 5.02 9 4 9 C4 8.34 4 7.68 4 7 C2.02 6.34 0.04 5.68 -2 5 C-1.34 3.35 -0.68 1.7 0 0 Z " fill="#CD9363" transform="translate(151,252)"/>
<path d="M0 0 C0 2.31 0 4.62 0 7 C-1.4562545 7.67119549 -2.91507867 8.33681807 -4.375 9 C-5.59316406 9.556875 -5.59316406 9.556875 -6.8359375 10.125 C-9 11 -9 11 -11 11 C-11 10.34 -11 9.68 -11 9 C-10.05125 8.54625 -9.1025 8.0925 -8.125 7.625 C-4.99686321 6.19761746 -4.99686321 6.19761746 -3 4 C-3 3.01 -3 2.02 -3 1 C-1 0 -1 0 0 0 Z " fill="#1F1D1C" transform="translate(131,231)"/>
<path d="M0 0 C1.32 0 2.64 0 4 0 C4.33 1.65 4.66 3.3 5 5 C5.99 5.33 6.98 5.66 8 6 C8 6.66 8 7.32 8 8 C2.96014269 7.55530671 0.62365012 5.28656638 -3 2 C-2.01 1.67 -1.02 1.34 0 1 C0 0.67 0 0.34 0 0 Z " fill="#1F1C1A" transform="translate(71,194)"/>
<path d="M0 0 C2 0.875 2 0.875 3.4375 3.1875 C4 5.875 4 5.875 2.859375 8.02734375 C1 9.875 1 9.875 -1.48046875 10.265625 C-2.82044922 10.19601563 -2.82044922 10.19601563 -4.1875 10.125 C-5.08855469 10.08890625 -5.98960937 10.0528125 -6.91796875 10.015625 C-7.60503906 9.96921875 -8.29210937 9.9228125 -9 9.875 C-9 9.215 -9 8.555 -9 7.875 C-6.03 7.875 -3.06 7.875 0 7.875 C-0.95934081 4.03763678 -1.23609263 3.27839772 -4 0.875 C-2 -0.125 -2 -0.125 0 0 Z " fill="#F8E6DA" transform="translate(229,167.125)"/>
<path d="M0 0 C0.625 2.0625 0.625 2.0625 1 4 C-1.90600261 5.25664978 -3.79604584 6 -7 6 C-7.33 4.35 -7.66 2.7 -8 1 C-2.25 -1.125 -2.25 -1.125 0 0 Z " fill="#2B2A27" transform="translate(128,233)"/>
<path d="M0 0 C3.125 0.25 3.125 0.25 5 1.75 C5.37125 2.245 5.7425 2.74 6.125 3.25 C5.795 3.91 5.465 4.57 5.125 5.25 C1.66 3.27 1.66 3.27 -1.875 1.25 C-1.875 1.91 -1.875 2.57 -1.875 3.25 C-4.875 5.25 -4.875 5.25 -7.5625 4.875 C-8.325625 4.66875 -9.08875 4.4625 -9.875 4.25 C-9.545 3.26 -9.215 2.27 -8.875 1.25 C-7.6684375 1.2809375 -7.6684375 1.2809375 -6.4375 1.3125 C-3.37986021 1.23792342 -3.14520269 0.27349589 0 0 Z " fill="#BE8E78" transform="translate(230.875,278.75)"/>
<path d="M0 0 C0.66 0 1.32 0 2 0 C2.33 0.66 2.66 1.32 3 2 C4.98 2 6.96 2 9 2 C8 4 8 4 5.8125 5.125 C2.73230669 6.08328236 0.20690052 6.14915816 -3 6 C-2.42655063 3.13275314 -2.1385485 2.1385485 0 0 Z " fill="#C5957C" transform="translate(97,170)"/>
<path d="M0 0 C2.31 0 4.62 0 7 0 C7 2.64 7 5.28 7 8 C4 9 4 9 1.3125 7.6875 C0.549375 7.130625 -0.21375 6.57375 -1 6 C-1 5.34 -1 4.68 -1 4 C0.98 4.66 2.96 5.32 5 6 C4.80528889 4.05000871 4.80528889 4.05000871 4 2 C2.0162233 0.71563266 2.0162233 0.71563266 0 0 Z " fill="#C18D77" transform="translate(98,244)"/>
<path d="M0 0 C4.38513176 0.1195945 6.92287328 1.44395979 10.25 4.375 C11.625 7.125 11.625 7.125 12.25 9.375 C11.78851563 8.95347656 11.32703125 8.53195313 10.8515625 8.09765625 C5.46177011 3.57065671 1.24328837 2.40366102 -5.75 2.375 C-3.75 0.375 -3.75 0.375 0 0 Z " fill="#2C2723" transform="translate(237.75,166.625)"/>
<path d="M0 0 C-0.33 0.99 -0.66 1.98 -1 3 C-2.051875 2.7525 -2.051875 2.7525 -3.125 2.5 C-6.13888194 1.97584662 -8.94713625 1.92900317 -12 2 C-12.66 3.65 -13.32 5.3 -14 7 C-14.66 6.67 -15.32 6.34 -16 6 C-15.67 4.68 -15.34 3.36 -15 2 C-9.75614911 0.2520497 -5.52677733 -0.19392201 0 0 Z " fill="#BC907C" transform="translate(163,250)"/>
<path d="M0 0 C0.33 0 0.66 0 1 0 C0.67 5.28 0.34 10.56 0 16 C-0.33 16 -0.66 16 -1 16 C-1.12375 14.865625 -1.2475 13.73125 -1.375 12.5625 C-1.58125 11.386875 -1.7875 10.21125 -2 9 C-2.66 8.67 -3.32 8.34 -4 8 C-3.67 6.35 -3.34 4.7 -3 3 C-2.01 2.67 -1.02 2.34 0 2 C0 1.34 0 0.68 0 0 Z " fill="#E3DEDB" transform="translate(261,178)"/>
<path d="M0 0 C0.99 0.33 1.98 0.66 3 1 C2.67 2.32 2.34 3.64 2 5 C3.65 5 5.3 5 7 5 C6.34 6.32 5.68 7.64 5 9 C3.125 8.6875 3.125 8.6875 1 8 C-1 5 -1 5 -0.625 2.3125 C-0.41875 1.549375 -0.2125 0.78625 0 0 Z " fill="#BD8C77" transform="translate(134,235)"/>
<path d="M0 0 C1.98 0 3.96 0 6 0 C6.226875 0.639375 6.45375 1.27875 6.6875 1.9375 C7.85250896 4.27193661 7.85250896 4.27193661 10.625 4.75 C11.40875 4.8325 12.1925 4.915 13 5 C13 5.33 13 5.66 13 6 C9.7 6 6.4 6 3 6 C3 4.68 3 3.36 3 2 C2.01 1.67 1.02 1.34 0 1 C0 0.67 0 0.34 0 0 Z " fill="#201D1D" transform="translate(101,238)"/>
<path d="M0 0 C0.86625 0.7734375 0.86625 0.7734375 1.75 1.5625 C-3.5234375 4.78515625 -3.5234375 4.78515625 -5.25 5.5625 C-5.91 5.2325 -6.57 4.9025 -7.25 4.5625 C-6.92 2.9125 -6.59 1.2625 -6.25 -0.4375 C-3.39943397 -1.55736523 -2.65876672 -1.69865651 0 0 Z " fill="#1D1B1A" transform="translate(261.25,205.4375)"/>
<path d="M0 0 C2.4375 0.8125 2.4375 0.8125 5 2 C5.33 2.99 5.66 3.98 6 5 C5.01 5.495 5.01 5.495 4 6 C4.66 6.66 5.32 7.32 6 8 C4.02 8 2.04 8 0 8 C0 6.68 0 5.36 0 4 C-0.33 3.34 -0.66 2.68 -1 2 C-0.67 1.34 -0.34 0.68 0 0 Z " fill="#D0795B" transform="translate(245,268)"/>
<path d="M0 0 C1.76462683 3.08809695 2 4.23312136 2 8 C0.125 7.6875 0.125 7.6875 -2 7 C-4 4 -4 4 -4 1 C-2.68 0.67 -1.36 0.34 0 0 Z " fill="#322B28" transform="translate(99,161)"/>
<path d="M0 0 C0 1.65 0 3.3 0 5 C0.99 5 1.98 5 3 5 C3 4.01 3 3.02 3 2 C4.98 1.67 6.96 1.34 9 1 C5.87378374 4.39417765 3.43458973 6.6062718 -1 8 C-1.12375 7.195625 -1.2475 6.39125 -1.375 5.5625 C-1.684375 4.2940625 -1.684375 4.2940625 -2 3 C-2.66 2.67 -3.32 2.34 -4 2 C-1 0 -1 0 0 0 Z " fill="#352920" transform="translate(132,229)"/>
<path d="M0 0 C0.33 0 0.66 0 1 0 C1.66 4.95 2.32 9.9 3 15 C-1.85714286 12.57142857 -1.85714286 12.57142857 -4 10 C-4 9.34 -4 8.68 -4 8 C-3.01 8 -2.02 8 -1 8 C-0.67 5.36 -0.34 2.72 0 0 Z " fill="#423F3D" transform="translate(169,167)"/>
<path d="M0 0 C-0.33 2.31 -0.66 4.62 -1 7 C-2.65 6.67 -4.3 6.34 -6 6 C-6 3 -6 3 -4.6875 1.3125 C-3 0 -3 0 0 0 Z " fill="#2A2721" transform="translate(225,160)"/>
<path d="M0 0 C0.99 0.33 1.98 0.66 3 1 C2.33333333 3 1.66666667 5 1 7 C0.34 6.67 -0.32 6.34 -1 6 C-2.32860925 5.64830932 -3.66158328 5.31229724 -5 5 C-4.34 5 -3.68 5 -3 5 C-2.87625 4.360625 -2.7525 3.72125 -2.625 3.0625 C-2.41875 2.381875 -2.2125 1.70125 -2 1 C-1.34 0.67 -0.68 0.34 0 0 Z " fill="#2D2C29" transform="translate(260,199)"/>
<path d="M0 0 C3.91211733 1.15585285 6.8745041 2.35534962 10 5 C7.25 5.75 7.25 5.75 4 6 C1.625 4.1875 1.625 4.1875 0 2 C0 1.34 0 0.68 0 0 Z " fill="#2B2926" transform="translate(76,197)"/>
<path d="M0 0 C0.66 0 1.32 0 2 0 C0.20133333 4.047 -1.94361575 8.09277165 -6.125 9.9375 C-6.74375 9.958125 -7.3625 9.97875 -8 10 C-8.66 9.34 -9.32 8.68 -10 8 C-8.3603125 7.4121875 -8.3603125 7.4121875 -6.6875 6.8125 C-3.04877046 5.28658116 -1.81300048 3.53057988 0 0 Z " fill="#BB8E79" transform="translate(156,127)"/>
<path d="M0 0 C2.875 0.25 2.875 0.25 6 1 C7.375 3.0625 7.375 3.0625 8 5 C6.02 5.33 4.04 5.66 2 6 C2 4.68 2 3.36 2 2 C1.34 1.34 0.68 0.68 0 0 Z " fill="#BC8462" transform="translate(145,225)"/>
<path d="M0 0 C-2.73704754 2.73704754 -5.26044774 3.16182449 -9 4 C-11.4375 3.625 -11.4375 3.625 -13 3 C-8.37802694 0.78145293 -5.23175837 -0.38281159 0 0 Z " fill="#352319" transform="translate(241,267)"/>
<path d="M0 0 C1.98 0.66 3.96 1.32 6 2 C4.75 3.5625 4.75 3.5625 3 5 C0.8125 4.6875 0.8125 4.6875 -1 4 C-0.67 2.68 -0.34 1.36 0 0 Z " fill="#2E2A28" transform="translate(185,256)"/>
<path d="M0 0 C0.66 0 1.32 0 2 0 C1.25 6.75 1.25 6.75 -1 9 C-3.625 9.125 -3.625 9.125 -6 9 C-2.25 6 -2.25 6 0 6 C0 4.02 0 2.04 0 0 Z " fill="#BD8C7A" transform="translate(244,276)"/>
<path d="M0 0 C4.43090471 1.20842856 6.98112756 2.51668565 10 6 C8.53932801 5.54917531 7.08151968 5.08906463 5.625 4.625 C4.81289062 4.36976563 4.00078125 4.11453125 3.1640625 3.8515625 C1 3 1 3 -1 1 C-0.67 0.67 -0.34 0.34 0 0 Z " fill="#B58474" transform="translate(244,265)"/>
<path d="M0 0 C3.96 1.98 3.96 1.98 8 4 C7.67 5.65 7.34 7.3 7 9 C6.6596875 8.071875 6.6596875 8.071875 6.3125 7.125 C4.62070165 4.38589791 3.00755839 3.94975528 0 3 C0 2.01 0 1.02 0 0 Z " fill="#B7836F" transform="translate(173,260)"/>
<path d="M0 0 C0.99 0 1.98 0 3 0 C3 0.66 3 1.32 3 2 C3.99 2.33 4.98 2.66 6 3 C6.33 4.65 6.66 6.3 7 8 C1.125 3.375 1.125 3.375 0 0 Z " fill="#3A251A" transform="translate(162,249)"/>
<path d="M0 0 C2 3 2 3 1.625 5.6875 C1.41875 6.450625 1.2125 7.21375 1 8 C0.34 8 -0.32 8 -1 8 C-1.66 6.02 -2.32 4.04 -3 2 C-2.01 1.34 -1.02 0.68 0 0 Z " fill="#2E2B29" transform="translate(237,215)"/>
<path d="M0 0 C0.66 0 1.32 0 2 0 C2.66 3.3 3.32 6.6 4 10 C0.89448334 6.89448334 0.18676066 5.10801767 -1 1 C-0.67 0.67 -0.34 0.34 0 0 Z " fill="#1E1C1D" transform="translate(144,206)"/>
<path d="M0 0 C0.66 0.33 1.32 0.66 2 1 C0.8553125 1.8971875 0.8553125 1.8971875 -0.3125 2.8125 C-2.3483575 4.46959332 -4.1978279 6.10297674 -6 8 C-6.66 7.34 -7.32 6.68 -8 6 C-5.36 4.02 -2.72 2.04 0 0 Z " fill="#DEDAD5" transform="translate(244,142)"/>
<path d="M0 0 C0.66 0 1.32 0 2 0 C2.33 0.99 2.66 1.98 3 3 C4.65 3.33 6.3 3.66 8 4 C7.34 4.66 6.68 5.32 6 6 C3.375 5.625 3.375 5.625 1 5 C0.67 3.35 0.34 1.7 0 0 Z " fill="#B88D78" transform="translate(87,248)"/>
<path d="M0 0 C2.5 1.375 2.5 1.375 5 3 C5 3.66 5 4.32 5 5 C3.824375 4.9690625 3.824375 4.9690625 2.625 4.9375 C0.01885039 4.81315937 0.01885039 4.81315937 -2 6 C-1.125 1.125 -1.125 1.125 0 0 Z " fill="#302D2B" transform="translate(179,194)"/>
<path d="M0 0 C3.3776758 1.12589193 4.71363192 2.31943052 7 5 C7 5.99 7 6.98 7 8 C2.60841671 6.5361389 2.12052567 4.02168662 0 0 Z " fill="#1C1617" transform="translate(165,177)"/>
<path d="M0 0 C2.64 0.33 5.28 0.66 8 1 C7.67 2.32 7.34 3.64 7 5 C6.34 5 5.68 5 5 5 C5 4.01 5 3.02 5 2 C3.02 2.33 1.04 2.66 -1 3 C-0.67 2.01 -0.34 1.02 0 0 Z " fill="#BC947B" transform="translate(101,167)"/>
<path d="M0 0 C1.65 1.32 3.3 2.64 5 4 C5 3.01 5 2.02 5 1 C5.66 1 6.32 1 7 1 C6.67 2.32 6.34 3.64 6 5 C4.35 5 2.7 5 1 5 C0.34 3.68 -0.32 2.36 -1 1 C-0.67 0.67 -0.34 0.34 0 0 Z " fill="#BB8A72" transform="translate(171,270)"/>
<path d="M0 0 C-4.5 3 -4.5 3 -9 6 C-8.8125 4.1875 -8.8125 4.1875 -8 2 C-3.744 -1.248 -3.744 -1.248 0 0 Z " fill="#4F4B47" transform="translate(116,158)"/>
<path d="M0 0 C2.64 0 5.28 0 8 0 C8.66 1.32 9.32 2.64 10 4 C8.35 3.67 6.7 3.34 5 3 C5 2.34 5 1.68 5 1 C3.35 1 1.7 1 0 1 C0 0.67 0 0.34 0 0 Z " fill="#BB937F" transform="translate(157,97)"/>
<path d="M0 0 C3 0 3 0 5 1 C3.625 3 3.625 3 2 5 C1.34 5 0.68 5 0 5 C-0.5625 3.0625 -0.5625 3.0625 -1 1 C-0.67 0.67 -0.34 0.34 0 0 Z " fill="#E8E3E0" transform="translate(129,225)"/>
<path d="M0 0 C0.66666667 2 1.33333333 4 2 6 C0.68 6.99 -0.64 7.98 -2 9 C-1.125 1.125 -1.125 1.125 0 0 Z " fill="#1C1C1A" transform="translate(78,207)"/>
<path d="M0 0 C3.16717283 1.58358642 4.73268318 2.45263699 6.3125 5.6875 C6.539375 6.450625 6.76625 7.21375 7 8 C4.36 6.02 1.72 4.04 -1 2 C-0.67 1.34 -0.34 0.68 0 0 Z " fill="#4F4A44" transform="translate(243,168)"/>
<path d="M0 0 C1.32 1.65 2.64 3.3 4 5 C3.34 5.66 2.68 6.32 2 7 C1.01 6.67 0.02 6.34 -1 6 C-0.67 4.02 -0.34 2.04 0 0 Z " fill="#E5E1DC" transform="translate(126,152)"/>
<path d="M0 0 C-0.33 1.65 -0.66 3.3 -1 5 C-3.475 4.01 -3.475 4.01 -6 3 C-3.375 0 -3.375 0 0 0 Z " fill="#2F2E2C" transform="translate(121,140)"/>
</svg>
