<?xml version="1.0" encoding="UTF-8"?>
<svg version="1.1" xmlns="http://www.w3.org/2000/svg" width="500" height="500">
<path d="M0 0 C165 0 330 0 500 0 C500 165 500 330 500 500 C335 500 170 500 0 500 C0 335 0 170 0 0 Z " fill="#FEFEFE" transform="translate(0,0)"/>
<path d="M0 0 C12.06128866 -0.76772022 25.29694295 4.82875222 34.51953125 12.2890625 C42.87562411 19.66208561 51.21887145 31.90828923 52.51953125 43.2890625 C53.3230869 56.89091596 54.41559498 76.90774923 45.51953125 88.2890625 C42.001803 92.00828354 38.48493897 94.78439349 33.51953125 96.2890625 C33.80972465 97.62271726 34.10179017 98.95596465 34.39453125 100.2890625 C34.63816406 101.4028125 34.63816406 101.4028125 34.88671875 102.5390625 C35.38912623 104.72236413 35.96516754 106.88869723 36.56640625 109.046875 C38.90913207 118.41338703 39.18722561 130.44257346 34.8203125 139.19140625 C29.2969071 148.09851946 22.23065068 152.54984799 12.51953125 156.2890625 C-10.23261667 160.9596715 -30.76903681 155.53389687 -50.17578125 143.63671875 C-55.93664833 139.59650669 -59.65014755 135.15495638 -61.48046875 128.2890625 C-63.19144074 116.47764249 -61.15634974 106.30288399 -54.48046875 96.2890625 C-54.6397793 92.01579135 -57.84902438 88.96691515 -60.41796875 85.7890625 C-65.92188356 78.92279253 -65.92188356 78.92279253 -67.48046875 75.2890625 C-68.82535008 77.0302035 -70.1560202 78.78232865 -71.48046875 80.5390625 C-72.22296875 81.51359375 -72.96546875 82.488125 -73.73046875 83.4921875 C-75.83408513 86.30434329 -75.83408513 86.30434329 -75.48046875 90.2890625 C-74.44009675 92.8155652 -74.44009675 92.8155652 -73.04296875 95.3515625 C-69.99328218 101.12945871 -68.556104 105.74413508 -69.48046875 112.2890625 C-73.79531287 122.96975288 -83.65848115 127.95260407 -93.6875 132.23046875 C-103.85927745 136.25639214 -117.24100619 137.51570829 -127.5546875 133.3203125 C-133.33848141 130.22310846 -137.38870121 126.27332993 -139.828125 120.1171875 C-141.79981814 111.5692484 -141.16991033 102.57254257 -138.48046875 94.2890625 C-139.0115625 93.98613281 -139.54265625 93.68320313 -140.08984375 93.37109375 C-140.79625 92.95214844 -141.50265625 92.53320312 -142.23046875 92.1015625 C-142.9265625 91.69550781 -143.62265625 91.28945312 -144.33984375 90.87109375 C-149.56833171 87.006974 -151.37329233 82.54053829 -152.73046875 76.3515625 C-152.89740234 75.60447021 -153.06433594 74.85737793 -153.23632812 74.08764648 C-155.75637941 61.98240015 -155.64125928 51.58465683 -149.0078125 40.921875 C-143.44090049 33.1045092 -135.77936133 27.08253565 -126.37109375 24.73046875 C-114.18605646 22.86978062 -103.21760296 23.68053709 -92.953125 31.12109375 C-88.61853285 34.77772972 -85.06062653 38.77618145 -81.83203125 43.4296875 C-80.54383234 45.20189178 -79.15463765 46.62354818 -77.60546875 48.1640625 C-74.60668172 52.57404343 -74.60489107 56.10533271 -75.48046875 61.2890625 C-76.56463283 64.43918733 -77.89616618 67.36093186 -79.48046875 70.2890625 C-78.53945312 70.0003125 -77.5984375 69.7115625 -76.62890625 69.4140625 C-75.38367188 69.0428125 -74.1384375 68.6715625 -72.85546875 68.2890625 C-71.62570313 67.9178125 -70.3959375 67.5465625 -69.12890625 67.1640625 C-63.59130441 65.83598668 -59.7481852 65.79562422 -54.60546875 68.2890625 C-53.43371094 68.8459375 -53.43371094 68.8459375 -52.23828125 69.4140625 C-51.65820312 69.7028125 -51.078125 69.9915625 -50.48046875 70.2890625 C-50.89039063 69.64839844 -51.3003125 69.00773437 -51.72265625 68.34765625 C-57.01449493 59.85286258 -59.7209163 52.41172707 -58.48046875 42.2890625 C-56.75192443 38.83197386 -54.95758684 36.74039042 -52.16796875 34.1015625 C-48.9224769 30.70511754 -46.66084127 27.01059884 -44.2265625 23.0078125 C-36.9020961 11.60327422 -25.31932118 4.51562745 -12.18359375 1.54296875 C-8.13270074 0.85355621 -4.07790021 0.47521987 0 0 Z " fill="#282525" transform="translate(299.48046875,108.7109375)"/>
<path d="M0 0 C2.62202291 2.07366716 3.81871672 3.80380641 4.875 6.97265625 C4.97356581 9.42230653 5.01618799 11.83614417 5 14.28515625 C4.99806641 14.98705078 4.99613281 15.68894531 4.99414062 16.41210938 C4.93850723 23.29210593 4.47473388 30.11855474 3.875 36.97265625 C4.865 37.30265625 5.855 37.63265625 6.875 37.97265625 C7.14054687 37.25851563 7.40609375 36.544375 7.6796875 35.80859375 C11.70653799 26.25469356 18.00042833 17.74516547 27.375 12.97265625 C31.5689313 11.77439017 34.72955889 11.54138816 38.875 12.97265625 C43.49326178 16.66726567 46.77073898 21.11612907 47.875 26.97265625 C48.36252377 35.38244125 48.28186739 43.03967738 45.6640625 51.11328125 C44.36571579 55.81818122 43.98997462 60.64858423 43.5 65.4921875 C42.81676277 69.29696484 42.03594182 71.76044543 39.875 74.97265625 C37.49272614 76.49153631 35.34897401 77.67786974 32.8125 78.84765625 C21.80334045 84.31307406 12.10343627 90.92161288 7.875 102.97265625 C7.53905867 106.22443477 7.53905867 106.22443477 7.875 108.97265625 C8.93485767 110.22286875 8.93485767 110.22286875 11.3125 110.41015625 C15.94715136 109.84098854 18.84094751 107.81312697 22.703125 105.28515625 C24.875 103.97265625 24.875 103.97265625 26.875 103.97265625 C27.32120139 111.73986556 27.33130408 119.84492887 22.10546875 126.0859375 C13.801512 133.7547924 5.16959927 133.48671061 -5.56640625 133.28515625 C-16.52150112 132.83129421 -29.01114383 130.97686571 -37.125 122.97265625 C-44.39326052 113.83440638 -44.19215692 103.19773005 -43.125 91.97265625 C-41.55449306 83.85658978 -38.09620405 76.1796562 -34.125 68.97265625 C-34.64449219 68.4621875 -35.16398437 67.95171875 -35.69921875 67.42578125 C-43.02830864 59.78510343 -47.2547468 51.93151776 -47.8125 41.22265625 C-47.55911856 34.79598163 -45.42035566 31.54376313 -41.125 26.97265625 C-38.5941823 23.44484976 -36.63480478 19.95784478 -34.8125 16.03515625 C-31.02289169 8.38703767 -25.71360822 3.43469153 -17.9453125 -0.140625 C-12.24586788 -1.93255565 -5.52074053 -2.66903449 0 0 Z " fill="#F3EEE8" transform="translate(296.125,123.02734375)"/>
<path d="M0 0 C9.06405335 2.68068121 14.13612453 10.37992843 19 18 C19.44601563 18.53109375 19.89203125 19.0621875 20.3515625 19.609375 C23.58428584 23.54643471 24.73285993 26.46992289 24.42578125 31.59375 C23.31656892 37.86232613 21.12856219 43.97041542 16 48 C17.15244427 51.07318472 18.48494008 53.96925076 20 56.875 C23.80940277 64.50801972 25.86323887 72.95706313 23.27734375 81.34375 C20.61406473 87.12317329 17.04907117 90.30340454 11.125 92.625 C9.75941554 93.11066811 8.38246204 93.56469188 7 94 C5.36998047 94.52400391 5.36998047 94.52400391 3.70703125 95.05859375 C-3.6994646 96.93948469 -12.83544811 97.81005921 -19.75 94 C-24.72225282 90.18182755 -25.77543208 84.92844151 -26.6875 79 C-26.8421875 77.515 -26.8421875 77.515 -27 76 C-21.37777778 77.78888889 -21.37777778 77.78888889 -18.875 79.1875 C-16.52437854 80.20610263 -15.36651218 79.84518292 -13 79 C-13.21970166 73.61730932 -14.37310725 70.64580475 -18.0625 66.69921875 C-22.71555229 62.61841684 -28.08090279 59.5854711 -33.9375 57.625 C-37 56 -37 56 -38.75 52.5625 C-39.20465728 51.05258878 -39.61640845 49.5295106 -40 48 C-40.39832031 46.47246094 -40.39832031 46.47246094 -40.8046875 44.9140625 C-41.3356873 42.82546329 -41.8522895 40.73312851 -42.3515625 38.63671875 C-42.98275618 35.91752696 -42.98275618 35.91752696 -44 33 C-44.94387502 19.40456947 -44.94387502 19.40456947 -41 14 C-37.47125815 11.64750543 -35.55261172 11.39512715 -31.40625 11.49609375 C-24.51563003 12.93909696 -20.03930423 19.88435647 -16.32421875 25.3984375 C-14.99273349 27.29665821 -14.99273349 27.29665821 -12 28 C-12.33 26.824375 -12.66 25.64875 -13 24.4375 C-13.95990538 20.0373498 -14.31962007 15.6805807 -14.4375 11.1875 C-14.47746094 9.92292969 -14.51742187 8.65835938 -14.55859375 7.35546875 C-14 4 -14 4 -11.7421875 1.58203125 C-7.65455229 -0.77621983 -4.58996452 -0.73808475 0 0 Z " fill="#F1ECE6" transform="translate(195,141)"/>
<path d="M0 0 C3.07279534 4.60919301 2.94407834 8.60898716 2 14 C-1.94367915 23.33093317 -7.88351764 30.85057096 -15 38 C-20.14791692 37.3229497 -22.57380636 33.6255164 -25.8046875 29.8828125 C-30.92591692 23.1577817 -33.58053143 16.67282252 -33.46875 8.19140625 C-32.88875702 5.47993906 -31.86016919 4.03540251 -30 2 C-27.05940722 0.91662371 -25.46626935 0.87490335 -22.4375 1.6875 C-19.77300122 3.12223011 -18.01630339 4.7596629 -16 7 C-15.2575 6.05125 -14.515 5.1025 -13.75 4.125 C-9.4625049 -0.94095092 -6.64342192 -1.59934231 0 0 Z " fill="#CB8D6E" transform="translate(244,98)"/>
<path d="M0 0 C3.0497303 4.03780491 6.00335556 8.14337698 8.96484375 12.24609375 C10.96491511 15.04055225 10.96491511 15.04055225 13.31640625 17.59765625 C15 20 15 20 14.90625 21.96484375 C14.6071875 22.63644531 14.308125 23.30804688 14 24 C13.6184375 24.88816406 13.236875 25.77632812 12.84375 26.69140625 C12.4003125 27.63886719 11.956875 28.58632812 11.5 29.5625 C9.06289644 34.78385268 7.83765476 38.9138384 7.4375 44.6875 C7.35371094 45.86699219 7.26992187 47.04648438 7.18359375 48.26171875 C7.09271484 49.61716797 7.09271484 49.61716797 7 51 C6.67 50.01 6.34 49.02 6 48 C3.88077873 49.08743288 3.88077873 49.08743288 2 51 C1.7497843 54.08365871 1.7497843 54.08365871 2 57 C1.67 57.33 1.34 57.66 1 58 C-0.52519276 57.91062197 -2.04681929 57.75462854 -3.5625 57.5625 C-4.38878906 57.46066406 -5.21507812 57.35882813 -6.06640625 57.25390625 C-6.70449219 57.17011719 -7.34257812 57.08632812 -8 57 C-8.99 59.475 -8.99 59.475 -10 62 C-11.9375 61.3125 -11.9375 61.3125 -14 60 C-14.625 57.4375 -14.625 57.4375 -15 55 C-15.66 54.67 -16.32 54.34 -17 54 C-16.39671875 53.62488281 -15.7934375 53.24976563 -15.171875 52.86328125 C-9.25748649 49.07616474 -4.8802249 45.56253774 -2 39 C-0.84677625 32.10747665 -2.85349013 26.09307429 -6 20 C-6.96829306 18.64346533 -7.95993225 17.30231979 -9 16 C-7.15767888 12.09285522 -4.78691425 8.66904682 -2.33984375 5.12109375 C-0.85075698 2.95108832 -0.85075698 2.95108832 0 0 Z " fill="#FBFBFB" transform="translate(231,182)"/>
<path d="M0 0 C1.32 0 2.64 0 4 0 C4.33 8.58 4.66 17.16 5 26 C6.32 25.01 7.64 24.02 9 23 C13.6032007 22.01183527 17.05191195 22.41953793 21.0625 24.875 C23.81893612 29.3208647 23.84471466 32.90071332 23 38 C21.72077699 41.85714959 19.92550296 44.9031076 17.3125 48 C13.54913831 49.62739965 10.00762025 49.88740163 6 49 C1.2338977 44.63952342 -0.84930493 40.44928706 -1.24291992 34.05175781 C-1.24931752 32.51888794 -1.24458239 30.98594325 -1.23046875 29.453125 C-1.23001053 28.64131775 -1.22955231 27.8295105 -1.2290802 26.99310303 C-1.22606946 25.28526336 -1.21821858 23.57742615 -1.20581055 21.86962891 C-1.18746519 19.2450193 -1.18530162 16.62076101 -1.18554688 13.99609375 C-1.18063463 12.33593443 -1.17480759 10.6757775 -1.16796875 9.015625 C-1.16629951 7.83290009 -1.16629951 7.83290009 -1.16459656 6.62628174 C-1.11607803 1.11607803 -1.11607803 1.11607803 0 0 Z " fill="#0E0E0E" transform="translate(298,290)"/>
<path d="M0 0 C1.33814768 1.66280376 2.67079688 3.33003754 4 5 C6.67066998 6.99048431 6.67066998 6.99048431 9.5625 8.6875 C10.51253906 9.26886719 11.46257812 9.85023438 12.44140625 10.44921875 C13.28574219 10.96097656 14.13007813 11.47273437 15 12 C16.485 12.99 16.485 12.99 18 14 C17.43613497 15.65260442 16.84821283 17.29701637 16.25 18.9375 C15.92515625 19.85402344 15.6003125 20.77054687 15.265625 21.71484375 C14 24 14 24 11.859375 24.81640625 C11.24578125 24.87699219 10.6321875 24.93757813 10 25 C7 20.25 7 20.25 7 18 C5.783125 18.33 4.56625 18.66 3.3125 19 C0.13244525 19.78797817 -2.70733204 20.3873727 -6 20 C-8 18 -8 18 -8.1953125 15.8359375 C-8.13020833 13.55729167 -8.06510417 11.27864583 -8 9 C-10.64 7.68 -13.28 6.36 -16 5 C-16 4.34 -16 3.68 -16 3 C-5.75520833 -0.90277778 -5.75520833 -0.90277778 0 0 Z " fill="#CB8E6F" transform="translate(242,244)"/>
<path d="M0 0 C0.99 0 1.98 0 3 0 C7.09143432 8.18286864 3.62010424 23.57369593 0.88671875 31.8671875 C-0.30762817 34.73993384 -1.76873696 36.83846393 -4 39 C-7.65288193 40.21762731 -10.15754136 40.39075851 -14 40 C-19.04470717 36.99257842 -20.90398904 34.05107436 -22.4765625 28.4453125 C-24.20708579 20.36092757 -24.12731969 12.23334008 -24 4 C-22.0625 3.4375 -22.0625 3.4375 -20 3 C-17.69487575 5.30512425 -18.59261762 11.66558245 -18.48242188 14.94726562 C-18.06506773 25.05915109 -18.06506773 25.05915109 -14 34 C-10.94091587 34.81584568 -10.94091587 34.81584568 -8 35 C-4.17326209 30.30354892 -2.79932443 26.09541579 -2.40234375 20.078125 C-2.32306641 18.97082031 -2.24378906 17.86351562 -2.16210938 16.72265625 C-2.08798828 15.57667969 -2.01386719 14.43070312 -1.9375 13.25 C-1.78395149 10.96326932 -1.62661324 8.67678882 -1.46484375 6.390625 C-1.36610962 4.8751709 -1.36610962 4.8751709 -1.26538086 3.32910156 C-1 1 -1 1 0 0 Z " fill="#101010" transform="translate(176,298)"/>
<path d="M0 0 C1.48819457 0.9019361 2.96532813 1.82214129 4.4375 2.75 C5.26121094 3.26046875 6.08492188 3.7709375 6.93359375 4.296875 C9 6 9 6 9.84765625 8.140625 C9.89792969 8.75421875 9.94820313 9.3678125 10 10 C9 11 9 11 6.93359375 11.09765625 C6.10988281 11.08605469 5.28617187 11.07445312 4.4375 11.0625 C3.61121094 11.05347656 2.78492188 11.04445313 1.93359375 11.03515625 C1.29550781 11.02355469 0.65742188 11.01195312 0 11 C0.061875 11.9075 0.12375 12.815 0.1875 13.75 C-0.01672076 17.28982642 -0.64551835 18.44931155 -3 21 C-10.18456726 19.23774765 -10.18456726 19.23774765 -13 16 C-13.99 15.67 -14.98 15.34 -16 15 C-16.33 15.99 -16.66 16.98 -17 18 C-18.98 18.33 -20.96 18.66 -23 19 C-24.60725635 15.78548731 -24.05748185 12.56387464 -24 9 C-27.96 9 -31.92 9 -36 9 C-36 8.67 -36 8.34 -36 8 C-34.31583984 7.92652344 -34.31583984 7.92652344 -32.59765625 7.8515625 C-20.31659019 7.26433244 -10.94340396 5.98574496 0 0 Z " fill="#C98E70" transform="translate(324,258)"/>
<path d="M0 0 C2.9375 1.5625 2.9375 1.5625 5 4 C5.25180532 8.61643084 4.51668672 10.42030271 1.4375 13.875 C-2.1817659 16.56082993 -5.57570863 16.77115734 -10 17 C-8.42422186 20.11490087 -8.42422186 20.11490087 -6 23 C-2.42823087 23.520883 0.56713122 23.05626732 4 22 C4 23.32 4 24.64 4 26 C1.51981247 28.48018753 0.61484049 28.32361558 -2.8125 28.375 C-6.40304651 28.30246371 -7.82409443 28.10261158 -11 26.25 C-14.92284876 21.83679515 -15.44398819 18.25246464 -15.31640625 12.46875 C-14.69551254 7.62424599 -11.95222983 4.95222983 -8.625 1.625 C-5.37771733 -0.3852226 -3.75760879 -0.62626813 0 0 Z " fill="#0F0F0F" transform="translate(345,312)"/>
<path d="M0 0 C3.98717244 3.87222693 4.54583627 6.85112031 4.75 12.3125 C4.80671875 13.56675781 4.8634375 14.82101562 4.921875 16.11328125 C4.94765625 17.06589844 4.9734375 18.01851563 5 19 C6.65 19 8.3 19 10 19 C10 20.32 10 21.64 10 23 C9 24 9 24 6.125 24.3125 C3 24 3 24 1.1875 22.1875 C-0.77936668 18.56432453 -1.22847391 15.36853112 -1.5625 11.3125 C-1.68818359 9.82169922 -1.68818359 9.82169922 -1.81640625 8.30078125 C-1.87699219 7.54152344 -1.93757813 6.78226562 -2 6 C-3.86485908 5.29769828 -3.86485908 5.29769828 -6 5 C-8.666508 7.16588845 -8.666508 7.16588845 -11 10 C-11.53109375 10.57878906 -12.0621875 11.15757812 -12.609375 11.75390625 C-14.48065855 14.77634456 -14.51106711 17.22134211 -14.6875 20.75 C-14.75324219 21.92046875 -14.81898438 23.0909375 -14.88671875 24.296875 C-14.92410156 25.18890625 -14.96148437 26.0809375 -15 27 C-16.9375 27.5625 -16.9375 27.5625 -19 28 C-20 27 -20 27 -20.11352539 24.49975586 C-20.10828857 23.41573486 -20.10305176 22.33171387 -20.09765625 21.21484375 C-20.09443359 20.04501953 -20.09121094 18.87519531 -20.08789062 17.66992188 C-20.07951172 16.43822266 -20.07113281 15.20652344 -20.0625 13.9375 C-20.05798828 12.70193359 -20.05347656 11.46636719 -20.04882812 10.19335938 C-20.03699608 7.12885883 -20.02051173 4.06445279 -20 1 C-18.68 0.67 -17.36 0.34 -16 0 C-15.67 1.65 -15.34 3.3 -15 5 C-14.34 5 -13.68 5 -13 5 C-12.67 4.01 -12.34 3.02 -12 2 C-7.91148053 -1.36701604 -5.0258668 -1.46207034 0 0 Z " fill="#0E0E0E" transform="translate(211,313)"/>
<path d="M0 0 C2.0625 0.4375 2.0625 0.4375 4 1 C3.36691342 5.68043112 2.10458094 9.9463675 0.49609375 14.3671875 C0.2533522 15.04677521 0.01061066 15.72636292 -0.23948669 16.42654419 C-1.0090961 18.57775984 -1.78567323 20.72638147 -2.5625 22.875 C-3.08835456 24.3409795 -3.6137499 25.80712381 -4.13867188 27.2734375 C-5.42047789 30.85088639 -6.70853513 34.42602722 -8 38 C-9.89306641 37.68041992 -9.89306641 37.68041992 -12 37 C-13.32930971 34.75716923 -14.36495592 32.69457948 -15.375 30.3125 C-15.66955078 29.64492676 -15.96410156 28.97735352 -16.26757812 28.28955078 C-16.88077564 26.89475622 -17.48778206 25.49722501 -18.08886719 24.09716797 C-18.96896523 22.0714332 -19.88736229 20.06825661 -20.8203125 18.06640625 C-21.38102796 16.83631078 -21.94095754 15.6058567 -22.5 14.375 C-23.0053125 13.26898438 -23.510625 12.16296875 -24.03125 11.0234375 C-25.06360289 7.80149745 -24.99547367 6.18788592 -24 3 C-21.41245519 3.99778019 -20.2018816 4.67469498 -18.71972656 7.06298828 C-18.36362305 7.89040527 -18.00751953 8.71782227 -17.640625 9.5703125 C-17.24746094 10.46621094 -16.85429687 11.36210937 -16.44921875 12.28515625 C-16.05347656 13.22230469 -15.65773437 14.15945313 -15.25 15.125 C-14.83878906 16.06988281 -14.42757812 17.01476562 -14.00390625 17.98828125 C-12.9908212 20.32073289 -11.99015072 22.65774204 -11 25 C-9.21258576 22.31887863 -8.19944097 20.13825578 -7.08984375 17.1484375 C-6.73986328 16.21515625 -6.38988281 15.281875 -6.02929688 14.3203125 C-5.66900391 13.34835937 -5.30871094 12.37640625 -4.9375 11.375 C-4.21987838 9.44440733 -3.49995052 7.51466981 -2.77734375 5.5859375 C-2.46015381 4.7304834 -2.14296387 3.8750293 -1.81616211 2.99365234 C-1 1 -1 1 0 0 Z " fill="#0D0D0D" transform="translate(267,300)"/>
<path d="M0 0 C0.33 0 0.66 0 1 0 C1 2.97 1 5.94 1 9 C0.67 8.01 0.34 7.02 0 6 C-2.11922127 7.08743288 -2.11922127 7.08743288 -4 9 C-4.2502157 12.08365871 -4.2502157 12.08365871 -4 15 C-4.33 15.33 -4.66 15.66 -5 16 C-6.52519276 15.91062197 -8.04681929 15.75462854 -9.5625 15.5625 C-10.38878906 15.46066406 -11.21507812 15.35882813 -12.06640625 15.25390625 C-12.70449219 15.17011719 -13.34257812 15.08632812 -14 15 C-14.99 17.475 -14.99 17.475 -16 20 C-17.9375 19.3125 -17.9375 19.3125 -20 18 C-20.625 15.4375 -20.625 15.4375 -21 13 C-21.66 12.67 -22.32 12.34 -23 12 C-22.40832031 11.62488281 -21.81664062 11.24976563 -21.20703125 10.86328125 C-17.49572817 8.45971303 -14.36471706 6.41809029 -11.4375 3.0625 C-9 1 -9 1 -6.921875 0.9140625 C-4.6875 1.1875 -4.6875 1.1875 -1 2 C-0.67 1.34 -0.34 0.68 0 0 Z " fill="#C78D70" transform="translate(237,224)"/>
<path d="M0 0 C0.70125 0.27714844 1.4025 0.55429688 2.125 0.83984375 C7.82227732 3.01502708 12.91563891 4.54080294 19 5 C19 7.31 19 9.62 19 12 C16.39417629 12.93065133 15.35801776 13.14917407 12.75 12.0625 C12.1725 11.711875 11.595 11.36125 11 11 C9.35 12.32 7.7 13.64 6 15 C4.68 14.34 3.36 13.68 2 13 C2 11.35 2 9.7 2 8 C-0.64 8 -3.28 8 -6 8 C-4.55140574 4.61994673 -2.62669829 2.5412772 0 0 Z " fill="#CB8E6F" transform="translate(168,239)"/>
<path d="M0 0 C1.63930993 1.63930993 1.21001367 3.49743674 1.25 5.75 C1.18982741 9.95606417 1.04895959 12.84940843 -2 16 C-5.1875 16.8125 -5.1875 16.8125 -8 17 C-10.46840077 14.37732418 -11.87797841 12.63722388 -12.5625 9.0625 C-11.77590045 4.77990245 -10.03113127 3.10330106 -7 0 C-4.31633121 -1.3418344 -2.84719317 -0.73004953 0 0 Z " fill="#F4F4F4" transform="translate(315,318)"/>
<path d="M0 0 C0.20625 0.598125 0.4125 1.19625 0.625 1.8125 C2.5112944 4.8134229 4.83361061 5.51373559 8 7 C9.9375 8.4375 9.9375 8.4375 11 10 C10.6875 12.1875 10.6875 12.1875 10 14 C2.95620622 14.80043111 -2.7640372 12.12271278 -9 9 C-9.66 8.34 -10.32 7.68 -11 7 C-10.67 5.68 -10.34 4.36 -10 3 C-6.7 3 -3.4 3 0 3 C0 2.01 0 1.02 0 0 Z " fill="#C98D6F" transform="translate(298,156)"/>
<path d="M0 0 C1.98 0.495 1.98 0.495 4 1 C4.33 8.92 4.66 16.84 5 25 C1 24 1 24 -1 21 C-1.24291992 18.83935547 -1.24291992 18.83935547 -1.23046875 16.3671875 C-1.22853516 15.47902344 -1.22660156 14.59085937 -1.22460938 13.67578125 C-1.21236328 12.75152344 -1.20011719 11.82726562 -1.1875 10.875 C-1.18685547 9.94300781 -1.18621094 9.01101563 -1.18554688 8.05078125 C-1.14028159 1.14028159 -1.14028159 1.14028159 0 0 Z " fill="#131313" transform="translate(230,314)"/>
<path d="M0 0 C2.0625 0.4375 2.0625 0.4375 4 1 C3.98839844 2.0621875 3.97679687 3.124375 3.96484375 4.21875 C3.8781229 14.64610915 3.8781229 14.64610915 5 25 C3.125 24.6875 3.125 24.6875 1 24 C-1.1230081 20.81548785 -1.24884244 20.01526637 -1.23046875 16.3671875 C-1.22853516 15.47902344 -1.22660156 14.59085937 -1.22460938 13.67578125 C-1.21236328 12.75152344 -1.20011719 11.82726562 -1.1875 10.875 C-1.18685547 9.94300781 -1.18621094 9.01101563 -1.18554688 8.05078125 C-1.14028159 1.14028159 -1.14028159 1.14028159 0 0 Z " fill="#090909" transform="translate(281,314)"/>
<path d="M0 0 C2.97 0.33 5.94 0.66 9 1 C9 1.99 9 2.98 9 4 C3.95859836 6.81532819 -0.22621075 8.5188509 -6 9 C-5.25 4.25 -5.25 4.25 -3 2 C-2.01 2 -1.02 2 0 2 C0 1.34 0 0.68 0 0 Z " fill="#C98F71" transform="translate(183,167)"/>
<path d="M0 0 C0.94875 0.04125 1.8975 0.0825 2.875 0.125 C2.5625 2.5 2.5625 2.5 1.875 5.125 C-1.5602048 7.41513653 -3.110331 7.30342973 -7.125 7.125 C-4.56730769 0.18269231 -4.56730769 0.18269231 0 0 Z " fill="#F6F6F6" transform="translate(342.125,316.875)"/>
<path d="M0 0 C3.46284805 1.35169521 6.27599869 3.0044982 8.5 6.0625 C9 8 9 8 8 11 C7.59007812 10.50628906 7.18015625 10.01257813 6.7578125 9.50390625 C6.21898437 8.86324219 5.68015625 8.22257813 5.125 7.5625 C4.59132813 6.92441406 4.05765625 6.28632813 3.5078125 5.62890625 C0.89972559 2.81136158 -1.42471644 2.76957673 -5.125 2.4375 C-6.03507812 2.35371094 -6.94515625 2.26992187 -7.8828125 2.18359375 C-8.58148438 2.12300781 -9.28015625 2.06242188 -10 2 C-6.22786948 -0.51475368 -4.47964158 -0.44796416 0 0 Z " fill="#524E4D" transform="translate(282,145)"/>
<path d="M0 0 C4.6331873 0.77789676 6.96871972 2.62420605 10.1875 6 C11.0625 8.3125 11.0625 8.3125 11.1875 10 C9.69010417 8.73046875 8.19270833 7.4609375 6.6953125 6.19140625 C3.8763652 3.9639997 1.58229149 3.75337872 -1.9375 3.4375 C-2.84757812 3.35371094 -3.75765625 3.26992187 -4.6953125 3.18359375 C-5.39398438 3.12300781 -6.09265625 3.06242188 -6.8125 3 C-4.36205349 0.08677567 -4.12573636 0 0 0 Z " fill="#3E3B3A" transform="translate(317.8125,160)"/>
<path d="M0 0 C2.0625 0.4375 2.0625 0.4375 4 1 C4.625 2.875 4.625 2.875 5 5 C4.34 5.66 3.68 6.32 3 7 C0.875 6.625 0.875 6.625 -1 6 C-1.042721 4.33388095 -1.04063832 2.66617115 -1 1 C-0.67 0.67 -0.34 0.34 0 0 Z " fill="#1B1B1B" transform="translate(230,300)"/>
<path d="M0 0 C1.32 0.66 2.64 1.32 4 2 C3.67 3.65 3.34 5.3 3 7 C1.68 6.67 0.36 6.34 -1 6 C-1.625 4.125 -1.625 4.125 -2 2 C-1.34 1.34 -0.68 0.68 0 0 Z " fill="#151515" transform="translate(281,300)"/>
<path d="M0 0 C3.36720387 1.39332574 4.9859524 2.9789286 7 6 C6.67 6.66 6.34 7.32 6 8 C3.66666667 5.66666667 1.33333333 3.33333333 -1 1 C-0.67 0.67 -0.34 0.34 0 0 Z " fill="#514D4C" transform="translate(322,162)"/>
</svg>
