<?xml version="1.0" encoding="UTF-8"?>
<svg version="1.1" xmlns="http://www.w3.org/2000/svg" width="500" height="500">
<path d="M0 0 C165 0 330 0 500 0 C500 165 500 330 500 500 C335 500 170 500 0 500 C0 335 0 170 0 0 Z " fill="#F5F3EF" transform="translate(0,0)"/>
<path d="M0 0 C1.41387394 2.65486274 2.39808417 5.12818157 3.11328125 8.046875 C7.03679655 23.6379642 7.03679655 23.6379642 18 35 C24.51538493 38.81321476 31.49079355 40.03847338 38.83984375 41.2890625 C42 42 42 42 44 44 C41.56318413 44.50354867 39.12564561 45.00296756 36.6875 45.5 C35.99720703 45.64308594 35.30691406 45.78617188 34.59570312 45.93359375 C31.67475227 46.52625044 28.98891878 47 26 47 C28.45412364 49.47607465 30.91818933 51.92400525 33.47265625 54.296875 C51.35673385 71.23684594 68.39384182 98.40903602 70.1796875 123.52734375 C70.18610293 125.35253426 70.1051253 127.17782816 70 129 C70.639375 128.319375 71.27875 127.63875 71.9375 126.9375 C80.1934017 118.79722718 88.78318508 113.01042014 100.6875 112.5 C106.8276845 112.77114775 111.37567297 114.42724272 115.7890625 118.75390625 C120.1798821 123.73779864 121.12408122 126.35106604 121.0625 133.125 C121.05347656 134.40632812 121.04445313 135.68765625 121.03515625 137.0078125 C121.01775391 138.48894531 121.01775391 138.48894531 121 140 C121.93070312 139.96777344 122.86140625 139.93554688 123.8203125 139.90234375 C127 140 127 140 129.875 141.5625 C132 144 132 144 132.75 147.0625 C132.31956276 152.80576258 128.23842332 157.48023203 125 162 C124.44828125 162.80050781 123.8965625 163.60101563 123.328125 164.42578125 C116.73897168 173.50939976 108.21601374 180.77914547 97 183 C87.66175013 183.97005599 80.01105745 183.75829309 72.25 177.9375 C70 176 70 176 68 174 C67.82460693 174.56807373 67.64921387 175.13614746 67.46850586 175.72143555 C56.71401733 210.18666232 36.18752352 237.66734153 3.73193359 254.72143555 C-14.87593601 264.1594738 -33.17368893 267.25156019 -53.875 267.3125 C-54.58873779 267.31626648 -55.30247559 267.32003296 -56.0378418 267.32391357 C-67.74314982 267.35519141 -78.55448396 266.14551064 -89.6875 262.375 C-90.82481567 261.99347778 -90.82481567 261.99347778 -91.98510742 261.60424805 C-101.01119566 258.45931856 -109.68208397 254.27766293 -117.8203125 249.26171875 C-119.87774817 247.8277898 -119.87774817 247.8277898 -122.0625 248 C-126.79508862 250.44262639 -128.66904898 255.01274135 -130.33984375 259.796875 C-131.44489551 263.48474004 -132.25711898 267.22441644 -133 271 C-133.33 271 -133.66 271 -134 271 C-134.24234375 269.91460937 -134.4846875 268.82921875 -134.734375 267.7109375 C-135.07227534 266.26547493 -135.41085313 264.82017061 -135.75 263.375 C-135.90726563 262.66214844 -136.06453125 261.94929688 -136.2265625 261.21484375 C-137.67799417 255.12999559 -139.8035083 250.60160853 -145 246.8125 C-149.97665132 244.20983115 -155.54973449 243.18133834 -161 242 C-161 241.34 -161 240.68 -161 240 C-160.29875 239.82984375 -159.5975 239.6596875 -158.875 239.484375 C-152.77926158 237.92731138 -147.51919482 236.01993679 -142 233 C-142 228.85343054 -143.70478707 227.76128212 -146.4375 224.6875 C-156.16004648 213.3864491 -163.22202248 200.9213357 -168.76586914 187.08911133 C-170.50362617 182.80294114 -172.13817562 180.60934079 -176 178 C-177.11375 178.639375 -178.2275 179.27875 -179.375 179.9375 C-185.82380729 183.63959307 -191.55445163 183.77839824 -199 183 C-201.82752345 181.64682806 -202.91451162 180.43306978 -205 178 C-205.66 177.34 -206.32 176.68 -207 176 C-207.928125 176.78375 -208.85625 177.5675 -209.8125 178.375 C-214.40749281 182.25521615 -217.19420288 183.31448272 -223.3125 183.375 C-224.60800781 183.40335938 -225.90351563 183.43171875 -227.23828125 183.4609375 C-232.56268449 182.80851841 -235.56423756 180.82405039 -238.86328125 176.6328125 C-243.77696109 168.12989482 -243.77696109 168.12989482 -244 163 C-244.0825 161.824375 -244.165 160.64875 -244.25 159.4375 C-244.20361245 153.488297 -242.4669827 147.72821817 -241 142 C-241.9075 142.495 -242.815 142.99 -243.75 143.5 C-249.60067176 145.96843758 -256.37236342 146.28876563 -262.375 144.15625 C-267.42119855 141.32732051 -271.19120404 137.54201868 -273 132 C-274.62857155 120.37622593 -272.62658361 111.54606917 -265.5 101.98828125 C-257.61078984 93.21153494 -246.20880376 87.97025483 -235 85 C-234.25105469 84.77570313 -233.50210938 84.55140625 -232.73046875 84.3203125 C-226.85418644 82.81779548 -220.90691925 82.76426988 -214.875 82.6875 C-214.02744141 82.66977539 -213.17988281 82.65205078 -212.30664062 82.63378906 C-205.03122811 82.64230828 -198.60423603 83.96410285 -193.0625 89.0625 C-192.49660156 89.56910156 -191.93070312 90.07570313 -191.34765625 90.59765625 C-189.50724728 92.51274848 -189.00375266 93.56919502 -188.98046875 96.2421875 C-189.53984662 103.35578526 -189.53984662 103.35578526 -191.5625 106.1875 C-192.7690625 107.0846875 -192.7690625 107.0846875 -194 108 C-203.49421782 115.20322178 -209.86348985 125.17006417 -212 137 C-212.19533879 139.72586396 -212.1520543 142.26302258 -212 145 C-208.86681982 144.76791258 -207.84653743 143.85047236 -205.5625 141.625 C-200.85635001 135.52709224 -198.36950567 128.18995782 -195.92016602 120.96948242 C-186.31292955 92.68559899 -186.31292955 92.68559899 -176 87 C-170.8711505 85.49671653 -167.9234733 86.24161668 -163 88 C-162.29037109 86.67548828 -162.29037109 86.67548828 -161.56640625 85.32421875 C-157.10105907 77.15548218 -152.17540711 70.01221185 -146 63 C-145.27941406 62.14664063 -144.55882812 61.29328125 -143.81640625 60.4140625 C-128.12647952 42.23500301 -106.19032123 29.81455357 -83 24 C-81.99485352 23.74105957 -80.98970703 23.48211914 -79.95410156 23.21533203 C-70.94278516 21.06911173 -62.22091994 20.44490641 -53 20.5 C-52.28709808 20.50010071 -51.57419617 20.50020142 -50.83969116 20.50030518 C-35.88764157 20.54162359 -22.14099191 23.11119181 -8 28 C-6.35731883 23.17892177 -4.8752404 18.32240432 -3.4375 13.4375 C-3.10588867 12.3247168 -3.10588867 12.3247168 -2.76757812 11.18945312 C-1.67402625 7.47930583 -0.67236401 3.81509914 0 0 Z " fill="#242424" transform="translate(311,114)"/>
<path d="M0 0 C3.7644575 1.98299046 6.1439279 4.32193232 7.63671875 8.2734375 C8.4583296 13.17540783 8.23191664 17.00616687 5.44921875 21.2109375 C3.0999958 24.03785759 1.32317826 25.51938896 -2.36328125 26.2734375 C-10.36173565 26.7742103 -10.36173565 26.7742103 -13.36328125 25.2734375 C-16.74179074 24.67722994 -19.17222597 24.45794019 -22.09765625 26.4609375 C-30.58455285 35.18141841 -34.62446755 48.41777553 -39.13232422 59.48095703 C-49.50395901 84.8795206 -49.50395901 84.8795206 -59.36328125 91.2734375 C-63.0912802 92.51610382 -66.49111119 92.80246263 -70.36328125 92.2734375 C-75.64118637 89.53298677 -79.25286662 86.0833039 -81.453125 80.515625 C-87.15284046 60.21191758 -75.71082893 37.75514926 -66.36328125 20.2734375 C-68.25994651 20.36116205 -70.15567118 20.46935051 -72.05078125 20.5859375 C-73.10652344 20.64394531 -74.16226563 20.70195312 -75.25 20.76171875 C-78.6539153 21.32120797 -80.60021555 22.23622093 -83.36328125 24.2734375 C-85.6907747 27.76467767 -85.86627441 29.16566001 -85.36328125 33.2734375 C-84.68265625 33.9128125 -84.00203125 34.5521875 -83.30078125 35.2109375 C-81.36328125 37.2734375 -81.36328125 37.2734375 -81.30078125 40.6484375 C-82.79219603 45.73679381 -84.97613137 48.81462369 -89.61328125 51.6484375 C-93.54092967 52.54108487 -97.3541637 52.4306578 -101.36328125 52.2734375 C-101.22285248 53.91974078 -101.07578796 55.56547929 -100.92578125 57.2109375 C-100.84457031 58.12746094 -100.76335937 59.04398437 -100.6796875 59.98828125 C-100.60283149 62.23503482 -100.60283149 62.23503482 -99.36328125 63.2734375 C-96.53254689 63.77513165 -96.53254689 63.77513165 -93.36328125 63.2734375 C-90.71740891 60.87758464 -90.71740891 60.87758464 -88.36328125 58.2734375 C-86.17578125 57.3359375 -86.17578125 57.3359375 -84.36328125 57.2734375 C-83.70328125 57.9334375 -83.04328125 58.5934375 -82.36328125 59.2734375 C-82.62825035 64.18907117 -85.27930278 68.39545653 -87.55078125 72.6484375 C-87.92525391 73.37804687 -88.29972656 74.10765625 -88.68554688 74.859375 C-92.8355825 82.69755358 -97.59276502 89.49254211 -106.36328125 92.2734375 C-110.42002498 93.0008019 -113.46933067 92.75021114 -117.17578125 90.7734375 C-120.07460193 87.46049958 -121.03730365 84.46073519 -122.36328125 80.2734375 C-122.77578125 80.80453125 -123.18828125 81.335625 -123.61328125 81.8828125 C-128.1038454 87.37573473 -132.30921989 91.3749377 -139.47265625 92.6484375 C-143.05278059 92.86378333 -145.17797073 92.38623521 -148.23828125 90.5234375 C-152.24326055 86.28287118 -152.78303525 82.80775865 -152.69921875 77.125 C-152.1998029 72.88577246 -150.71817806 69.11565628 -149.25390625 65.125 C-148.06131134 61.30660401 -148.05837258 58.23725019 -148.36328125 54.2734375 C-152.54709139 53.86326003 -154.6537719 53.7574307 -158.11328125 56.2734375 C-163.52374863 63.487394 -163.61738325 69.99030035 -164.0625 78.76171875 C-164.50513682 83.92964735 -165.58335993 87.30281032 -169.11328125 91.2109375 C-172.4460304 92.78473571 -174.72515018 92.78405239 -178.36328125 92.2734375 C-182.05082406 89.40534864 -183.96649626 86.71775338 -185.36328125 82.2734375 C-185.78738281 82.74394531 -186.21148437 83.21445312 -186.6484375 83.69921875 C-191.55750351 88.91038113 -196.08660845 92.30126711 -203.48828125 92.6484375 C-207.4499266 92.26505247 -209.3193265 91.78022376 -212.36328125 89.2734375 C-214.95751678 85.77121954 -214.94166323 81.4896177 -215.36328125 77.2734375 C-215.71519531 77.86511719 -216.06710938 78.45679688 -216.4296875 79.06640625 C-220.36543001 85.36564949 -224.08994607 89.84899244 -231.36328125 92.2734375 C-237.48421206 92.77515314 -240.47999075 92.36177373 -245.36328125 88.2734375 C-250.83639407 82.40938805 -250.85412258 74.96314772 -250.7421875 67.3515625 C-249.5612818 49.62527906 -238.26844377 31.62775828 -225.80859375 19.515625 C-224.36328125 18.2734375 -224.36328125 18.2734375 -222.36328125 17.2734375 C-232.30088318 16.63912248 -241.24104417 17.65774074 -249.55078125 23.5234375 C-252.08931806 27.3750106 -252.43683668 29.63944511 -252.36328125 34.2734375 C-251.05061607 35.62712346 -249.717608 36.96143346 -248.36328125 38.2734375 C-248.28164397 42.6818507 -249.08592928 44.86137172 -251.55078125 48.5234375 C-255.69063584 52.57129532 -259.08856884 54.41057494 -264.86328125 54.7109375 C-269.35805252 54.54474428 -271.91330925 53.24201806 -275.36328125 50.2734375 C-279.90601204 45.36237719 -280.74377604 41.23361957 -280.63671875 34.703125 C-279.57847425 25.29986675 -273.08280935 18.82765324 -266.55078125 12.5859375 C-254.87211417 4.11317903 -241.72445794 0.94256143 -227.48828125 0.8359375 C-226.62098389 0.8258667 -225.75368652 0.8157959 -224.86010742 0.80541992 C-218.54433256 0.8906294 -211.74686448 1.55834189 -206.65673828 5.64282227 C-204.79977488 7.98382992 -204.58421189 10.25656005 -204.6953125 13.1875 C-205.59467047 15.99602138 -206.88707091 16.73874836 -209.30078125 18.3984375 C-219.26453097 25.31334267 -225.19715562 37.56465029 -227.36328125 49.2734375 C-228.04358141 55.95135258 -228.04358141 55.95135258 -226.36328125 62.2734375 C-220.5733857 62.73662914 -217.87676954 61.90538511 -213.36328125 58.2734375 C-211.83100718 55.94880877 -210.64996854 53.8911079 -209.48828125 51.3984375 C-209.15586426 50.71370361 -208.82344727 50.02896973 -208.48095703 49.32348633 C-205.23879593 42.43027721 -202.75962941 35.27252639 -200.22753906 28.09643555 C-193.48738351 9.18174928 -193.48738351 9.18174928 -185.36328125 4.2734375 C-182.11328125 3.8359375 -182.11328125 3.8359375 -179.36328125 4.2734375 C-177.36328125 6.2734375 -177.36328125 6.2734375 -176.953125 8.796875 C-177.53578088 13.73557723 -179.6693977 17.51196959 -181.92578125 21.8984375 C-185.50747111 29.14870802 -188.7690191 36.40429776 -191.48828125 44.0234375 C-191.7829126 44.81959473 -192.07754395 45.61575195 -192.38110352 46.43603516 C-194.27010939 51.90133662 -194.71475401 56.49114377 -194.36328125 62.2734375 C-192.53535036 64.10136839 -190.0104803 63.61963299 -187.56640625 63.796875 C-184.07056541 62.96630288 -182.61577737 61.00072446 -180.36328125 58.2734375 C-178.88611141 55.0721986 -178.88611141 55.0721986 -177.86328125 51.5859375 C-172.47370727 35.45111224 -172.47370727 35.45111224 -167.36328125 31.2734375 C-164.67578125 31.0859375 -164.67578125 31.0859375 -162.36328125 31.2734375 C-161.37328125 33.9134375 -160.38328125 36.5534375 -159.36328125 39.2734375 C-155.34183833 37.89465707 -152.6326679 35.95601116 -149.36328125 33.2734375 C-144.84250789 30.58773493 -140.49018694 30.53180963 -135.36328125 31.2734375 C-132.11525613 32.47546254 -131.57723423 33.30207955 -129.36328125 36.2734375 C-128.33871133 42.4022285 -129.34779776 47.47892246 -131.36328125 53.2734375 C-131.58077406 56.28293105 -131.63548703 59.26651322 -131.36328125 62.2734375 C-130.20582638 63.64341495 -130.20582638 63.64341495 -127.05078125 63.5859375 C-123.42758606 63.61337232 -123.42758606 63.61337232 -121.3359375 61.71484375 C-118.88449033 58.68087448 -117.4666116 55.51552043 -116.11328125 51.8984375 C-115.7121814 50.84039917 -115.7121814 50.84039917 -115.30297852 49.76098633 C-113.23895874 43.8736816 -113.16138502 38.74886207 -113.47265625 32.5234375 C-113.32002711 27.98817163 -111.74647559 24.78392926 -109.66015625 20.81640625 C-108.06541137 17.68936131 -107.13578568 14.5302817 -106.234375 11.1484375 C-105.05780697 8.6159144 -103.76784512 7.66689501 -101.36328125 6.2734375 C-99.03125 5.8671875 -99.03125 5.8671875 -96.55078125 5.7734375 C-91.81763347 5.43933295 -88.63308396 4.28275642 -84.36328125 2.2734375 C-79.76113267 1.03052146 -75.15969829 1.05435288 -70.42578125 1.0234375 C-69.64009766 1.0028125 -68.85441406 0.9821875 -68.04492188 0.9609375 C-63.07382517 0.92765819 -59.64732979 1.47408975 -55.36328125 4.2734375 C-50.95619244 10.88407071 -53.04069258 19.98408166 -54.484375 27.41796875 C-55.16836348 30.79944299 -55.86925188 34.17708134 -56.57324219 37.55444336 C-58.33316856 46.29122069 -58.96780765 54.38018246 -58.36328125 63.2734375 C-56.02179894 63.39557644 -56.02179894 63.39557644 -53.36328125 62.2734375 C-47.72803441 55.02683413 -44.98371467 46.13379115 -41.74365234 37.63208008 C-24.45921146 -7.51969146 -24.45921146 -7.51969146 0 0 Z " fill="#F2F0EC" transform="translate(322.36328125,200.7265625)"/>
<path d="M0 0 C2 2 2 2 2.37109375 5.0546875 C1.90403837 10.02022362 0.2193202 13.6786322 -1.9375 18.125 C-5.2320801 24.80741618 -5.2320801 24.80741618 -7 32 C-5.865625 31.360625 -4.73125 30.72125 -3.5625 30.0625 C-2.92441406 29.70285156 -2.28632813 29.34320313 -1.62890625 28.97265625 C-0.02121854 28.1027487 -0.02121854 28.1027487 1 27 C6.40275331 26.4195389 10.60747362 26.51181728 15 30 C17.40879165 32.06467856 17.96331553 32.88994659 19 36 C19.42560774 44.25481054 19.24349768 52.0075395 17 60 C23.52275099 56.0863494 25.6329906 51.86684618 28.75 45.125 C32.81750816 36.99995306 37.80102068 31.7270739 46.11328125 27.8828125 C52.11103001 26.04858893 59.14850534 25.60268057 65.12109375 27.76953125 C69.12643631 30.27661599 71.53198567 33.59595702 73 38 C73.53828279 44.35173692 72.67417245 48.72049683 69 54 C65.10452143 58.21565489 60.7738934 60.75213568 55.02734375 61.265625 C54.00769531 61.26046875 52.98804688 61.2553125 51.9375 61.25 C50.91527344 61.25515625 49.89304687 61.2603125 48.83984375 61.265625 C46.0390422 61.00365182 44.38409096 60.44074562 42 59 C43.24976756 62.65316671 43.67098753 63.78065836 47 66 C56.74317585 67.17519372 64.76434289 65.52837762 72.875 60.0625 C75.15051376 57.85391311 77.0983679 55.53550947 79 53 C80.32 53.33 81.64 53.66 83 54 C83.7109375 55.6484375 83.7109375 55.6484375 84 58 C77.31728587 71.32634806 66.32820654 83.19520292 52 88 C45.0390612 88.84672111 38.50975221 89.00621351 32.71875 84.6875 C27.96296567 80.01818448 24.3493657 74.81263122 24 68 C23.278125 68.61875 22.55625 69.2375 21.8125 69.875 C17.56042203 73.08768114 14.33388269 74.3047933 9 74 C8.74476563 74.58652344 8.48953125 75.17304688 8.2265625 75.77734375 C5.11643503 81.41321168 -0.77128103 85.65810526 -6.8671875 87.55859375 C-12.83914944 88.79454924 -17.97780023 88.98491065 -23.375 85.875 C-28.10466933 82.50892485 -30.47515633 78.10457524 -33 73 C-33.35191406 73.59167969 -33.70382812 74.18335938 -34.06640625 74.79296875 C-38.00214876 81.09221199 -41.72666482 85.57555494 -49 88 C-56.03361345 88.56722689 -56.03361345 88.56722689 -59.875 86.3125 C-64.60938505 81.16037509 -64.42449639 75.64800271 -64.3125 68.94921875 C-63.21632309 55.09628299 -58.506473 38.4332691 -48.73828125 28.296875 C-47 27 -47 27 -43.6875 26.375 C-41 27 -41 27 -39 29 C-38.36822184 33.84363259 -39.33862369 37.23487805 -41 41.8125 C-42.95463377 47.29652549 -43.74203897 52.19749852 -43 58 C-41.90645094 59.29524348 -41.90645094 59.29524348 -39.25 59.375 C-35.80155635 58.97710266 -34.57738172 58.28146717 -32.23583984 55.78857422 C-29.57466813 51.93718268 -28.52017746 47.31528644 -27.1875 42.875 C-13.23130224 -1.12606828 -13.23130224 -1.12606828 0 0 Z " fill="#F2F0EC" transform="translate(355,205)"/>
<path d="M0 0 C2.53102623 2.53102623 2.60636536 4.26698006 3.3125 7.75 C4.63303898 13.23582113 5.76992398 16.25061444 10 20 C15.08668593 22.73898473 20.37410993 23.91564477 26 25 C23.08787854 26.57683996 20.32840117 27.4991754 17.125 28.3125 C12.38531605 29.74137531 9.33621528 31.18718253 6 35 C4.76520451 37.78851167 3.76841022 40.56605501 2.859375 43.4765625 C2 46 2 46 0 49 C-0.26554687 48.19175781 -0.53109375 47.38351563 -0.8046875 46.55078125 C-1.15789062 45.48214844 -1.51109375 44.41351563 -1.875 43.3125 C-2.22304688 42.25675781 -2.57109375 41.20101562 -2.9296875 40.11328125 C-4.41992446 34.47603115 -4.41992446 34.47603115 -8.375 30.8125 C-9.24125 30.544375 -10.1075 30.27625 -11 30 C-11.92425781 29.51466797 -11.92425781 29.51466797 -12.8671875 29.01953125 C-15.1598237 27.92360076 -17.26514279 27.38658825 -19.75 26.875 C-20.54921875 26.70742187 -21.3484375 26.53984375 -22.171875 26.3671875 C-22.77515625 26.24601562 -23.3784375 26.12484375 -24 26 C-21.08398926 23.08398926 -17.7652905 22.81981697 -13.82421875 21.87890625 C-9.46075264 20.52098111 -6.76890072 19.34557626 -4.453125 15.29296875 C-4.05609375 14.26816406 -3.6590625 13.24335938 -3.25 12.1875 C-2.84265625 11.17042969 -2.4353125 10.15335938 -2.015625 9.10546875 C-1.02161993 6.06610708 -0.43503566 3.1634658 0 0 Z " fill="#EDEBE8" transform="translate(311,132)"/>
<path d="M0 0 C0.66 0.99 1.32 1.98 2 3 C1.28757618 5.3675809 0.49963538 7.44314433 -0.5 9.6875 C-1.07371863 11.03556482 -1.64526187 12.38455712 -2.21484375 13.734375 C-2.51245605 14.43369141 -2.81006836 15.13300781 -3.11669922 15.85351562 C-4.27223572 18.66155236 -5.29557545 21.50910897 -6.31884766 24.36743164 C-12.30595664 41.0334517 -12.30595664 41.0334517 -19 46 C-21.25 45.75 -21.25 45.75 -23 45 C-23.89036441 33.42526264 -19.03045389 23.0006819 -12 14 C-9.47368475 11.45975286 -6.79347815 9.23478252 -4 7 C-1.52206932 4.72808665 -0.57747865 3.34937615 0 0 Z " fill="#EDEBE7" transform="translate(121,214)"/>
<path d="M0 0 C2.23160471 2.23160471 2.54221193 3.45415922 3.375 6.4375 C4.25382161 9.13890239 4.81052834 10.78245847 6.6875 12.9375 C10.04348158 14.47943748 13.39006673 15.21784779 17 16 C17 16.66 17 17.32 17 18 C15.98679688 18.22042969 15.98679688 18.22042969 14.953125 18.4453125 C9.06843704 19.91573622 9.06843704 19.91573622 4.5 23.75 C2.91681199 27.18024069 1.88000116 30.33332849 1 34 C-0.29571936 31.508232 -1.36005208 29.06713779 -2.375 26.4375 C-4.61256585 21.70418763 -6.41442801 20.57934361 -11.25 18.8125 C-12.1575 18.544375 -13.065 18.27625 -14 18 C-14 17.34 -14 16.68 -14 16 C-13.07767578 15.63648438 -13.07767578 15.63648438 -12.13671875 15.265625 C-5.97437494 12.93138258 -5.97437494 12.93138258 -2 8 C-1.20296187 5.34320624 -0.58856138 2.71643713 0 0 Z " fill="#E9E7E3" transform="translate(177,338)"/>
<path d="M0 0 C1.9375 1.0625 1.9375 1.0625 3 3 C3.57707852 7.36930879 3.2797633 9.49642606 1.125 13.375 C-1.69508482 16.85863419 -1.69508482 16.85863419 -4.875 17.203125 C-5.926875 17.22632813 -5.926875 17.22632813 -7 17.25 C-7.70125 17.27578125 -8.4025 17.3015625 -9.125 17.328125 C-9.74375 17.21984375 -10.3625 17.1115625 -11 17 C-13.45665197 13.31502204 -13.70086491 10.28028214 -13 6 C-9.34775503 0.27814955 -6.68349788 -0.46901739 0 0 Z " fill="#262626" transform="translate(354,250)"/>
<path d="M0 0 C1 1 1 1 1.3125 3.8125 C1 7 1 7 -0.625 9.375 C-3.67785921 11.46379841 -5.36968224 11.54068562 -9 11 C-10.9375 9.875 -10.9375 9.875 -12 8 C-11.92882884 4.58378448 -11.58668407 2.69950793 -9.375 0.0625 C-5.98335411 -1.45481527 -3.55622484 -0.80518298 0 0 Z " fill="#3C3B3B" transform="translate(411,246)"/>
<path d="M0 0 C2.375 0.875 2.375 0.875 4.375 2.875 C4.16239686 5.63884076 3.70331986 7.39893621 2.125 9.6875 C-0.25843087 11.30482809 -1.80375799 11.23669769 -4.625 10.875 C-6.625 8.875 -6.625 8.875 -7 6.5 C-6.625 3.875 -6.625 3.875 -4.9375 1.5 C-2.625 -0.125 -2.625 -0.125 0 0 Z " fill="#CDCBC8" transform="translate(236.625,310.125)"/>
<path d="M0 0 C-1.32002058 3.57294032 -2.89521388 6.63953492 -5 9.8125 C-5.515625 10.60269531 -6.03125 11.39289063 -6.5625 12.20703125 C-7.036875 12.79871094 -7.51125 13.39039063 -8 14 C-8.66 14 -9.32 14 -10 14 C-10 13.01 -10 12.02 -10 11 C-10.99 11 -11.98 11 -13 11 C-13.375 8.8125 -13.375 8.8125 -13 6 C-8.74704496 1.74704496 -5.89528608 0 0 0 Z " fill="#EAE8E4" transform="translate(87,223)"/>
<path d="M0 0 C2.31 0 4.62 0 7 0 C8.2380014 3.57644848 7.74926071 6.33694766 7 10 C6.01 10 5.02 10 4 10 C4 8.68 4 7.36 4 6 C3.01 6 2.02 6 1 6 C0.67 7.32 0.34 8.64 0 10 C-0.66 10 -1.32 10 -2 10 C-1.125 2.25 -1.125 2.25 0 0 Z " fill="#D3D1CE" transform="translate(245,311)"/>
<path d="M0 0 C0.99 0 1.98 0 3 0 C4.60725635 3.21451269 4.05748185 6.43612536 4 10 C3.34 10 2.68 10 2 10 C2 9.34 2 8.68 2 8 C-0.31 8.66 -2.62 9.32 -5 10 C-3.66786942 6.4134946 -2.23083941 3.12317517 0 0 Z " fill="#C4C2BF" transform="translate(265,311)"/>
<path d="M0 0 C2.31 0 4.62 0 7 0 C7 0.33 7 0.66 7 1 C5.35 1 3.7 1 2 1 C2 1.99 2 2.98 2 4 C3.32 4 4.64 4 6 4 C6 4.66 6 5.32 6 6 C4.35 6 2.7 6 1 6 C1 7.32 1 8.64 1 10 C0.34 10 -0.32 10 -1 10 C-1.125 3.375 -1.125 3.375 0 0 Z " fill="#E0DEDA" transform="translate(221,311)"/>
<path d="M0 0 C0.66 0 1.32 0 2 0 C1.67 2.64 1.34 5.28 1 8 C2.65 8 4.3 8 6 8 C6 8.66 6 9.32 6 10 C3.36 10 0.72 10 -2 10 C-1.34 6.7 -0.68 3.4 0 0 Z " fill="#DAD8D5" transform="translate(285,311)"/>
<path d="M0 0 C0.66 0 1.32 0 2 0 C1.67 2.64 1.34 5.28 1 8 C2.32 8 3.64 8 5 8 C5 8.66 5 9.32 5 10 C2.69 10 0.38 10 -2 10 C-1.125 2.25 -1.125 2.25 0 0 Z " fill="#DCDBD7" transform="translate(275,311)"/>
<path d="M0 0 C0.99 0.33 1.98 0.66 3 1 C3 2.65 3 4.3 3 6 C1.35 6.33 -0.3 6.66 -2 7 C-2.125 4.625 -2.125 4.625 -2 2 C-1.34 1.34 -0.68 0.68 0 0 Z " fill="#2F2F2E" transform="translate(235,312)"/>
<path d="M0 0 C1.65 0.33 3.3 0.66 5 1 C5.75 3.25 5.75 3.25 6 6 C4.0625 8.3125 4.0625 8.3125 2 10 C1.01 9.34 0.02 8.68 -1 8 C-0.01 7.67 0.98 7.34 2 7 C2.16687448 4.58354218 2.16687448 4.58354218 2 2 C1.34 1.34 0.68 0.68 0 0 Z " fill="#D5D4D0" transform="translate(235,311)"/>
<path d="M0 0 C0.33 0 0.66 0 1 0 C1 3.96 1 7.92 1 12 C0.01 12 -0.98 12 -2 12 C-1.85962479 10.18706911 -1.71255111 8.3746557 -1.5625 6.5625 C-1.48128906 5.55316406 -1.40007812 4.54382813 -1.31640625 3.50390625 C-1 1 -1 1 0 0 Z " fill="#EBE9E5" transform="translate(134,249)"/>
<path d="M0 0 C0.33 0.66 0.66 1.32 1 2 C3.52733235 2.65555119 3.52733235 2.65555119 6 3 C6 3.99 6 4.98 6 6 C5.34 6 4.68 6 4 6 C4 5.34 4 4.68 4 4 C1.69 4.66 -0.62 5.32 -3 6 C-1.125 1.125 -1.125 1.125 0 0 Z " fill="#E8E6E2" transform="translate(263,315)"/>
<path d="M0 0 C-0.33 0.99 -0.66 1.98 -1 3 C-1.99 3 -2.98 3 -4 3 C-4.33 4.65 -4.66 6.3 -5 8 C-5.66 8 -6.32 8 -7 8 C-7.36275695 3.52599758 -7.36275695 3.52599758 -5.75 1.1875 C-4 0 -4 0 0 0 Z " fill="#A1A09D" transform="translate(250,313)"/>
</svg>
